<svg xmlns="http://www.w3.org/2000/svg" xmlns:xlink="http://www.w3.org/1999/xlink" viewBox="0 0 290.53 71.4"><defs><clipPath id="clip-path" transform="translate(0 0)"><rect width="290.52" height="71.41" style="fill:none"/></clipPath></defs><title>Ativo 3</title><g style="isolation:isolate"><g id="Camada_2" data-name="Camada 2"><g id="Camada_1-2" data-name="Camada 1"><g style="mix-blend-mode:overlay"><g style="clip-path:url(#clip-path)"><path d="M287.75,5.55A2.77,2.77,0,1,0,285,2.78a2.78,2.78,0,0,0,2.76,2.77" transform="translate(0 0)" style="fill:#fff"/><path d="M259.26,5.55a2.77,2.77,0,1,0-2.77-2.77,2.78,2.78,0,0,0,2.77,2.77" transform="translate(0 0)" style="fill:#fff"/><path d="M230.76,0a2.77,2.77,0,1,0,2.77,2.77A2.76,2.76,0,0,0,230.76,0" transform="translate(0 0)" style="fill:#fff"/><path d="M202.26,0A2.77,2.77,0,1,0,205,2.77,2.76,2.76,0,0,0,202.26,0" transform="translate(0 0)" style="fill:#fff"/><path d="M173.76,5.55A2.77,2.77,0,1,0,171,2.77a2.77,2.77,0,0,0,2.77,2.77" transform="translate(0 0)" style="fill:#fff"/><path d="M145.26,0A2.77,2.77,0,1,0,148,2.77,2.76,2.76,0,0,0,145.26,0" transform="translate(0 0)" style="fill:#fff"/><path d="M116.77,0a2.77,2.77,0,1,0,2.77,2.77A2.76,2.76,0,0,0,116.77,0" transform="translate(0 0)" style="fill:#fff"/><path d="M88.27,5.55a2.77,2.77,0,1,0-2.78-2.77,2.77,2.77,0,0,0,2.78,2.77" transform="translate(0 0)" style="fill:#fff"/><path d="M59.77,0a2.77,2.77,0,1,0,2.77,2.77A2.76,2.76,0,0,0,59.77,0" transform="translate(0 0)" style="fill:#fff"/><path d="M31.27,0A2.77,2.77,0,1,0,34,2.77,2.76,2.76,0,0,0,31.27,0" transform="translate(0 0)" style="fill:#fff"/><path d="M2.77,0A2.77,2.77,0,1,0,5.54,2.77,2.76,2.76,0,0,0,2.77,0" transform="translate(0 0)" style="fill:#fff"/><path d="M287.75,32.94a2.77,2.77,0,1,0,2.78,2.77,2.77,2.77,0,0,0-2.78-2.77" transform="translate(0 0)" style="fill:#fff"/><path d="M259.26,38.48a2.77,2.77,0,1,0-2.77-2.77,2.78,2.78,0,0,0,2.77,2.77" transform="translate(0 0)" style="fill:#fff"/><path d="M230.76,32.94a2.77,2.77,0,1,0,2.77,2.77,2.77,2.77,0,0,0-2.77-2.77" transform="translate(0 0)" style="fill:#fff"/><path d="M202.26,32.94A2.77,2.77,0,1,0,205,35.71a2.77,2.77,0,0,0-2.77-2.77" transform="translate(0 0)" style="fill:#fff"/><path d="M173.76,38.48A2.77,2.77,0,1,0,171,35.71a2.77,2.77,0,0,0,2.77,2.77" transform="translate(0 0)" style="fill:#fff"/><path d="M145.26,32.94A2.77,2.77,0,1,0,148,35.71a2.77,2.77,0,0,0-2.77-2.77" transform="translate(0 0)" style="fill:#fff"/><path d="M116.77,32.94a2.77,2.77,0,1,0,2.77,2.77,2.77,2.77,0,0,0-2.77-2.77" transform="translate(0 0)" style="fill:#fff"/><path d="M88.27,38.48a2.77,2.77,0,1,0-2.78-2.77,2.77,2.77,0,0,0,2.78,2.77" transform="translate(0 0)" style="fill:#fff"/><path d="M59.77,32.94a2.77,2.77,0,1,0,2.77,2.77,2.77,2.77,0,0,0-2.77-2.77" transform="translate(0 0)" style="fill:#fff"/><path d="M31.27,32.94A2.77,2.77,0,1,0,34,35.71a2.77,2.77,0,0,0-2.77-2.77" transform="translate(0 0)" style="fill:#fff"/><path d="M2.77,32.94a2.77,2.77,0,1,0,2.77,2.77,2.77,2.77,0,0,0-2.77-2.77" transform="translate(0 0)" style="fill:#fff"/><path d="M287.75,65.87a2.77,2.77,0,1,0,2.78,2.77,2.76,2.76,0,0,0-2.78-2.77" transform="translate(0 0)" style="fill:#fff"/><path d="M259.26,65.87A2.77,2.77,0,1,0,262,68.65a2.76,2.76,0,0,0-2.77-2.77" transform="translate(0 0)" style="fill:#fff"/><path d="M230.76,65.87a2.77,2.77,0,1,0,2.77,2.77,2.76,2.76,0,0,0-2.77-2.77" transform="translate(0 0)" style="fill:#fff"/><path d="M202.26,65.87A2.77,2.77,0,1,0,205,68.65a2.76,2.76,0,0,0-2.77-2.77" transform="translate(0 0)" style="fill:#fff"/><path d="M173.76,65.87a2.77,2.77,0,1,0,2.76,2.77,2.76,2.76,0,0,0-2.76-2.77" transform="translate(0 0)" style="fill:#fff"/><path d="M145.26,65.87A2.77,2.77,0,1,0,148,68.65a2.76,2.76,0,0,0-2.77-2.77" transform="translate(0 0)" style="fill:#fff"/><path d="M116.77,65.87a2.77,2.77,0,1,0,2.77,2.77,2.76,2.76,0,0,0-2.77-2.77" transform="translate(0 0)" style="fill:#fff"/><path d="M88.27,65.87A2.77,2.77,0,1,0,91,68.65a2.77,2.77,0,0,0-2.77-2.77" transform="translate(0 0)" style="fill:#fff"/><path d="M59.77,65.87a2.77,2.77,0,1,0,2.77,2.77,2.76,2.76,0,0,0-2.77-2.77" transform="translate(0 0)" style="fill:#fff"/><path d="M31.27,65.87A2.77,2.77,0,1,0,34,68.65a2.76,2.76,0,0,0-2.77-2.77" transform="translate(0 0)" style="fill:#fff"/><path d="M2.77,65.87a2.77,2.77,0,1,0,2.77,2.77,2.77,2.77,0,0,0-2.77-2.77" transform="translate(0 0)" style="fill:#fff"/></g></g></g></g></g></svg>