<?xml version="1.0" encoding="UTF-8"?>
<!DOCTYPE svg PUBLIC "-//W3C//DTD SVG 1.1//EN" "http://www.w3.org/Graphics/SVG/1.1/DTD/svg11.dtd">
<!-- Creator: CorelDRAW 2021 (64 Bit) -->
<svg xmlns="http://www.w3.org/2000/svg" xml:space="preserve" width="1930px" height="151px" version="1.1" shape-rendering="geometricPrecision" text-rendering="geometricPrecision" image-rendering="optimizeQuality" fill-rule="evenodd" clip-rule="evenodd"
viewBox="0 0 212.27 16.64"
 xmlns:xlink="http://www.w3.org/1999/xlink"
 xmlns:xodm="http://www.corel.com/coreldraw/odm/2003">
 <defs>
   <linearGradient id="id0" gradientUnits="userSpaceOnUse" x1="106.14" y1="12.64" x2="106.14" y2="0">
    <stop offset="0" stop-opacity="1" stop-color="#0868B3"/>
    <stop offset="1" stop-opacity="1" stop-color="#284A78"/>
   </linearGradient>
 </defs>
 <g id="Camada_x0020_1">
  <metadata id="CorelCorpID_0Corel-Layer"/>
  <path fill="url(#id0)" d="M5.37 12.64l201.63 0c1.24,0 2.32,-0.85 2.63,-2.05l2.64 -10.59 -212.27 0.01 2.74 10.58c0.31,1.21 1.39,2.05 2.63,2.05z"/>
  <path fill="#001C47" fill-rule="nonzero" d="M196.83 0l-181.29 0.01 1.75 6.96c0.16,0.61 0.7,1.03 1.32,1.03l175.15 0c0.62,0 1.16,-0.42 1.32,-1.03l1.75 -6.97z"/>
  <path fill="#001C47" fill-rule="nonzero" d="M146.76 8.64l-81.15 0 1.75 6.97c0.15,0.61 0.69,1.03 1.31,1.03l75.03 0c0.62,0 1.16,-0.42 1.31,-1.03l1.75 -6.97z"/>
  <path fill="#CE9028" fill-rule="nonzero" d="M74.32 14.1l0.56 0 0 -0.8 0.38 0c0.45,0 0.76,-0.28 0.76,-0.77 0,-0.45 -0.32,-0.67 -0.76,-0.67l-0.94 0 0 2.24zm0.82 -1.84c0.17,0 0.33,0.07 0.33,0.3 0,0.24 -0.16,0.34 -0.33,0.34l-0.26 0 0 -0.64 0.26 0zm1.13 1.84l1.49 0 0 -0.41 -0.93 0 0 -1.83 -0.56 0 0 2.24zm1.52 0l0.49 0 0.13 -0.43 0.75 0 0.14 0.43 0.56 0 -0.75 -2.24 -0.57 0 -0.75 2.24zm0.91 -1.31c0.05,-0.15 0.08,-0.38 0.08,-0.38l0.02 0c0,0 0.02,0.22 0.07,0.38l0.16 0.47 -0.49 0 0.16 -0.47zm1.37 1.31l0.45 0 0 -1.08c0,-0.12 -0.01,-0.27 -0.03,-0.39l0.02 0c0.04,0.12 0.1,0.26 0.16,0.36l0.61 1.11 0.58 0 0 -2.24 -0.45 0 0 1.07c0,0.13 0.01,0.31 0.02,0.44l-0.01 0c-0.06,-0.13 -0.12,-0.3 -0.17,-0.4l-0.59 -1.11 -0.59 0 0 2.24zm2.2 0l1.51 0 0 -0.41 -0.96 0 0 -0.53 0.78 0 0 -0.41 -0.78 0 0 -0.48 0.93 0 0 -0.41 -1.48 0 0 2.24zm2 -1.85l0.51 0 0 1.26c0,0.15 -0.06,0.22 -0.18,0.22 -0.18,0 -0.24,-0.17 -0.15,-0.46l-0.49 0.05c-0.16,0.52 0.16,0.82 0.65,0.82 0.49,0 0.72,-0.3 0.72,-0.73l0 -1.55 -1.06 0 0 0.39zm1.21 1.85l0.49 0 0.13 -0.43 0.75 0 0.14 0.43 0.56 0 -0.75 -2.24 -0.57 0 -0.75 2.24zm0.91 -1.31c0.05,-0.15 0.08,-0.38 0.08,-0.38l0.02 0c0,0 0.02,0.22 0.07,0.38l0.16 0.47 -0.49 0 0.16 -0.47zm1.37 1.31l0.45 0 0 -1.13c0,-0.14 -0.02,-0.43 -0.02,-0.43l0.01 0c0,0 0.06,0.29 0.1,0.41l0.44 1.15 0.25 0 0.43 -1.15c0.04,-0.11 0.11,-0.43 0.11,-0.43l0.01 0c0,0 -0.03,0.31 -0.03,0.45l0 1.13 0.51 0 0 -2.24 -0.65 0 -0.36 1c-0.05,0.15 -0.09,0.32 -0.09,0.32l-0.01 0c0,0 -0.04,-0.16 -0.1,-0.32l-0.37 -1 -0.68 0 0 2.24zm2.67 0l1.51 0 0 -0.41 -0.96 0 0 -0.53 0.78 0 0 -0.41 -0.78 0 0 -0.48 0.93 0 0 -0.41 -1.48 0 0 2.24zm1.8 0l0.46 0 0 -1.08c0,-0.12 -0.02,-0.27 -0.03,-0.39l0.01 0c0.05,0.12 0.11,0.26 0.17,0.36l0.61 1.11 0.58 0 0 -2.24 -0.46 0 0 1.07c0,0.13 0.02,0.31 0.03,0.44l-0.02 0c-0.05,-0.13 -0.12,-0.3 -0.17,-0.4l-0.58 -1.11 -0.6 0 0 2.24zm2.03 -1.83l0.61 0 0 1.83 0.56 0 0 -1.83 0.62 0 0 -0.41 -1.79 0 0 0.41zm2.92 1.87c0.58,0 1.02,-0.3 1.02,-1.19 0,-0.81 -0.43,-1.13 -1.02,-1.13 -0.6,0 -1.03,0.32 -1.03,1.13 0,0.87 0.43,1.19 1.03,1.19zm-0.01 -0.39c-0.23,0 -0.45,-0.18 -0.45,-0.8 0,-0.56 0.22,-0.74 0.45,-0.74 0.24,0 0.46,0.18 0.46,0.74 0,0.62 -0.22,0.8 -0.46,0.8zm1.95 0.35l1.52 0 0 -0.41 -0.96 0 0 -0.53 0.78 0 0 -0.41 -0.78 0 0 -0.48 0.93 0 0 -0.41 -1.49 0 0 2.24zm1.69 -0.69c-0.07,0.48 0.3,0.73 0.85,0.73 0.58,0 0.88,-0.29 0.88,-0.69 0,-0.47 -0.4,-0.6 -0.74,-0.72 -0.22,-0.07 -0.4,-0.13 -0.4,-0.31 0,-0.14 0.1,-0.21 0.28,-0.21 0.26,0 0.36,0.15 0.32,0.41l0.51 -0.05c0.07,-0.34 -0.12,-0.74 -0.79,-0.75 -0.54,-0.01 -0.87,0.24 -0.87,0.66 0,0.47 0.41,0.63 0.74,0.74 0.22,0.08 0.4,0.13 0.4,0.31 0,0.12 -0.08,0.22 -0.31,0.22 -0.35,0 -0.42,-0.21 -0.38,-0.39l-0.49 0.05zm1.87 -1.14l0.61 0 0 1.83 0.55 0 0 -1.83 0.63 0 0 -0.41 -1.79 0 0 0.41zm2.02 1.83l0.56 0 0 -0.89 0.12 0c0.13,0 0.22,0.28 0.29,0.44 0.15,0.36 0.3,0.46 0.57,0.46 0.1,0 0.22,-0.03 0.22,-0.03l0.05 -0.4c0,0 -0.04,0.02 -0.09,0.02 -0.2,0 -0.26,-0.21 -0.36,-0.4 -0.04,-0.08 -0.09,-0.15 -0.15,-0.21 0.22,-0.07 0.45,-0.27 0.45,-0.61 0,-0.41 -0.3,-0.62 -0.73,-0.62l-0.93 0 0 2.24zm0.82 -1.84c0.16,0 0.28,0.07 0.28,0.26 0,0.24 -0.18,0.29 -0.34,0.29l-0.2 0 0 -0.55 0.26 0zm1.02 1.84l0.48 0 0.14 -0.43 0.75 0 0.14 0.43 0.56 0 -0.76 -2.24 -0.56 0 -0.75 2.24zm0.91 -1.31c0.05,-0.15 0.08,-0.38 0.08,-0.38l0.01 0c0,0 0.03,0.22 0.08,0.38l0.15 0.47 -0.48 0 0.16 -0.47zm1.02 -0.52l0.61 0 0 1.83 0.55 0 0 -1.83 0.63 0 0 -0.41 -1.79 0 0 0.41zm2.02 1.83l1.52 0 0 -0.41 -0.96 0 0 -0.53 0.78 0 0 -0.41 -0.78 0 0 -0.48 0.93 0 0 -0.41 -1.49 0 0 2.24zm1.36 -2.96l-0.52 0 -0.39 0.53 0.36 0 0.55 -0.53zm1.33 2.22l0.41 0 0 0.07c0,0.15 -0.14,0.3 -0.39,0.3 -0.27,0 -0.45,-0.16 -0.45,-0.75 0,-0.59 0.21,-0.77 0.45,-0.77 0.22,0 0.37,0.14 0.33,0.45l0.52 -0.06c0.08,-0.39 -0.19,-0.78 -0.87,-0.78 -0.62,0 -1.01,0.33 -1.01,1.15 0,0.81 0.39,1.17 0.91,1.17 0.38,0 0.56,-0.17 0.64,-0.42l0 0.38 0.38 0 0 -1.13 -0.92 0 0 0.39zm1.15 -1.11l0.3 0 0 1.46 -0.3 0 0 0.39 1.15 0 0 -0.39 -0.3 0 0 -1.46 0.3 0 0 -0.39 -1.15 0 0 0.39zm2.33 1.89c0.6,0 0.92,-0.34 0.89,-0.79l-0.49 -0.05c0.04,0.29 -0.14,0.43 -0.37,0.43 -0.24,0 -0.46,-0.15 -0.46,-0.76 0,-0.58 0.2,-0.76 0.44,-0.76 0.25,0 0.39,0.14 0.34,0.5l0.51 -0.05c0.08,-0.48 -0.18,-0.84 -0.84,-0.84 -0.62,0 -1.02,0.33 -1.02,1.14 0,0.82 0.39,1.18 1,1.18zm2.11 0c0.58,0 1.02,-0.3 1.02,-1.19 0,-0.81 -0.43,-1.13 -1.02,-1.13 -0.6,0 -1.03,0.32 -1.03,1.13 0,0.87 0.43,1.19 1.03,1.19zm-0.01 -0.39c-0.24,0 -0.45,-0.18 -0.45,-0.8 0,-0.56 0.21,-0.74 0.45,-0.74 0.24,0 0.46,0.18 0.46,0.74 0,0.62 -0.22,0.8 -0.46,0.8zm1.89 0.35l1.56 0 0 -0.41 -0.91 0 0 -0.01c0.44,-0.24 0.87,-0.66 0.87,-1.18 0,-0.4 -0.26,-0.68 -0.76,-0.68 -0.53,0 -0.78,0.32 -0.78,0.65 0,0.19 0.07,0.33 0.07,0.33l0.56 0.05c0,0 -0.08,-0.14 -0.08,-0.33 0,-0.26 0.1,-0.31 0.2,-0.31 0.13,0 0.22,0.09 0.22,0.31 0,0.5 -0.62,1 -0.95,1.21l0 0.37zm1.81 -1.13c0,0.83 0.32,1.17 0.85,1.17 0.5,0 0.84,-0.33 0.84,-1.18 0,-0.83 -0.32,-1.14 -0.84,-1.14 -0.53,0 -0.85,0.31 -0.85,1.15zm0.55 0c0,-0.58 0.11,-0.73 0.3,-0.73 0.18,0 0.3,0.15 0.3,0.73 0,0.61 -0.13,0.74 -0.3,0.74 -0.18,0 -0.3,-0.13 -0.3,-0.74zm1.41 1.13l1.56 0 0 -0.41 -0.91 0 0 -0.01c0.44,-0.24 0.87,-0.66 0.87,-1.18 0,-0.4 -0.26,-0.68 -0.76,-0.68 -0.53,0 -0.78,0.32 -0.78,0.65 0,0.19 0.07,0.33 0.07,0.33l0.56 0.05c0,0 -0.08,-0.14 -0.08,-0.33 0,-0.26 0.1,-0.31 0.2,-0.31 0.13,0 0.22,0.09 0.22,0.31 0,0.5 -0.62,1 -0.95,1.21l0 0.37zm1.86 0l1.46 0 0 -0.41 -0.42 0 0 -1.83 -0.45 0c-0.12,0.31 -0.43,0.39 -0.65,0.37l0 0.44c0.26,0 0.44,-0.06 0.55,-0.18l0 1.2 -0.49 0 0 0.41zm2.97 -0.34c0.36,0 0.64,-0.29 0.64,-0.64 0,-0.36 -0.28,-0.64 -0.64,-0.64 -0.35,0 -0.64,0.28 -0.64,0.64 0,0.35 0.29,0.64 0.64,0.64zm1.6 0.34l1.57 0 0 -0.41 -0.92 0 0 -0.01c0.44,-0.24 0.87,-0.66 0.87,-1.18 0,-0.4 -0.26,-0.68 -0.76,-0.68 -0.53,0 -0.78,0.32 -0.78,0.65 0,0.19 0.08,0.33 0.08,0.33l0.55 0.05c0,0 -0.08,-0.14 -0.08,-0.33 0,-0.26 0.1,-0.31 0.21,-0.31 0.12,0 0.22,0.09 0.22,0.31 0,0.5 -0.62,1 -0.96,1.21l0 0.37zm1.82 -1.13c0,0.83 0.32,1.17 0.84,1.17 0.51,0 0.84,-0.33 0.84,-1.18 0,-0.83 -0.32,-1.14 -0.84,-1.14 -0.52,0 -0.84,0.31 -0.84,1.15zm0.54 0c0,-0.58 0.11,-0.73 0.3,-0.73 0.18,0 0.3,0.15 0.3,0.73 0,0.61 -0.13,0.74 -0.3,0.74 -0.18,0 -0.3,-0.13 -0.3,-0.74zm1.41 1.13l1.57 0 0 -0.41 -0.92 0 0 -0.01c0.44,-0.24 0.87,-0.66 0.87,-1.18 0,-0.4 -0.26,-0.68 -0.76,-0.68 -0.53,0 -0.78,0.32 -0.78,0.65 0,0.19 0.08,0.33 0.08,0.33l0.55 0.05c0,0 -0.08,-0.14 -0.08,-0.33 0,-0.26 0.1,-0.31 0.21,-0.31 0.12,0 0.21,0.09 0.21,0.31 0,0.5 -0.62,1 -0.95,1.21l0 0.37zm1.76 -0.45l0.89 0 0 0.45 0.54 0 0 -0.45 0.24 0 0 -0.41 -0.24 0 0 -1.38 -0.65 0 -0.78 1.31 0 0.48zm0.4 -0.41l0.49 -0.81 0 0.81 -0.49 0z"/>
 </g>
</svg>
