<?xml version="1.0" encoding="UTF-8"?>
<!DOCTYPE svg PUBLIC "-//W3C//DTD SVG 1.1//EN" "http://www.w3.org/Graphics/SVG/1.1/DTD/svg11.dtd">
<!-- Creator: CorelDRAW 2021 (64 Bit) -->
<?xml-stylesheet href="barras-pink.css" type="text/css"?>
<svg xmlns="http://www.w3.org/2000/svg" xml:space="preserve" width="331px" height="34px" version="1.1" style="shape-rendering:geometricPrecision; text-rendering:geometricPrecision; image-rendering:optimizeQuality; fill-rule:evenodd; clip-rule:evenodd"
viewBox="0 0 7.16 0.74"
 xmlns:xlink="http://www.w3.org/1999/xlink"
 xmlns:xodm="http://www.corel.com/coreldraw/odm/2003">
 <g id="Camada_x0020_1">
  <metadata id="CorelCorpID_0Corel-Layer"/>
  <polygon style="fill:#ed028c;fill-rule:nonzero"  points="4.32,0 3.62,0.7 3.66,0.74 4.36,0.04 "/>
  <polygon style="fill:#ed028c;fill-rule:nonzero"  points="5.02,0 4.32,0.7 4.36,0.74 5.06,0.04 "/>
  <polygon style="fill:#ed028c;fill-rule:nonzero"  points="5.71,0 5.02,0.7 5.06,0.74 5.76,0.04 "/>
  <polygon style="fill:#ed028c;fill-rule:nonzero"  points="6.41,0 5.71,0.7 5.76,0.74 6.46,0.04 "/>
  <polygon style="fill:#ed028c;fill-rule:nonzero"  points="7.11,0 6.41,0.7 6.46,0.74 7.16,0.04 "/>
  <polygon style="fill:#ed028c;fill-rule:nonzero"  points="0.7,0 0,0.7 0.04,0.74 0.74,0.04 "/>
  <polygon style="fill:#ed028c;fill-rule:nonzero"  points="1.4,0 0.7,0.7 0.74,0.74 1.44,0.04 "/>
  <polygon style="fill:#ed028c;fill-rule:nonzero"  points="2.09,0 1.4,0.7 1.44,0.74 2.14,0.04 "/>
  <polygon style="fill:#ed028c;fill-rule:nonzero"  points="2.79,0 2.09,0.7 2.14,0.74 2.84,0.04 "/>
  <polygon style="fill:#ed028c;fill-rule:nonzero"  points="2.79,0.7 2.84,0.74 3.54,0.04 3.49,0 "/>
 </g>
</svg>
