<?xml version="1.0" encoding="UTF-8"?>
<!DOCTYPE svg PUBLIC "-//W3C//DTD SVG 1.1//EN" "http://www.w3.org/Graphics/SVG/1.1/DTD/svg11.dtd">
<svg xmlns="http://www.w3.org/2000/svg" xml:space="preserve" width="1930px" height="151px" version="1.1" shape-rendering="geometricPrecision" text-rendering="geometricPrecision" image-rendering="optimizeQuality" fill-rule="evenodd" clip-rule="evenodd"
viewBox="0 0 261.94 20.53"
 xmlns:xlink="http://www.w3.org/1999/xlink">
 <defs>
   <linearGradient id="id0" gradientUnits="userSpaceOnUse" x1="130.97" y1="15.6" x2="130.97" y2="0">
    <stop offset="0" stop-opacity="1" stop-color="#0868B3"/>
    <stop offset="1" stop-opacity="1" stop-color="#284A78"/>
   </linearGradient>
 </defs>
 <g id="Camada_x0020_1">
  <metadata />
  <path fill="url(#id0)" d="M6.63 15.6l248.8 0c1.54,0 2.87,-1.05 3.24,-2.53l3.27 -13.07 -261.94 0.02 3.39 13.05c0.37,1.49 1.7,2.53 3.24,2.53z"/>
  <g id="_3239257826064">
   <path fill="#001C47" fill-rule="nonzero" d="M242.88 0l-223.7 0.02 2.16 8.58c0.19,0.75 0.86,1.27 1.62,1.27l216.14 0c0.77,0 1.43,-0.52 1.62,-1.27l2.16 -8.6z"/>
   <path fill="#001C47" fill-rule="nonzero" d="M181.1 10.66l-100.14 0 2.16 8.61c0.18,0.74 0.85,1.26 1.62,1.26l92.58 0c0.77,0 1.44,-0.52 1.62,-1.26l2.16 -8.61z"/>
  </g>
  <path fill="#CE9028" fill-rule="nonzero" d="M102.97 18.05l0 -2.66 0.92 0c0.14,0 0.28,0.02 0.41,0.05 0.13,0.03 0.24,0.07 0.33,0.14 0.1,0.07 0.17,0.16 0.23,0.27 0.05,0.11 0.08,0.24 0.08,0.4 0,0.16 -0.03,0.29 -0.08,0.41 -0.06,0.11 -0.13,0.2 -0.23,0.28 -0.09,0.07 -0.2,0.12 -0.33,0.16 -0.12,0.04 -0.26,0.05 -0.4,0.05l-0.33 0 0 0.9 -0.6 0zm0.6 -1.37l0.3 0c0.32,0 0.49,-0.15 0.49,-0.43 0,-0.14 -0.05,-0.24 -0.14,-0.29 -0.08,-0.06 -0.21,-0.09 -0.37,-0.09l-0.28 0 0 0.81z"/>
  <polygon id="_1" fill="#CE9028" fill-rule="nonzero" points="105.4,18.05 105.4,15.39 106,15.39 106,17.55 107.06,17.55 107.06,18.05 "/>
  <path id="_2" fill="#CE9028" fill-rule="nonzero" d="M108.12 16.71l-0.07 0.24 0.57 0 -0.06 -0.24c-0.04,-0.13 -0.08,-0.28 -0.11,-0.43 -0.04,-0.15 -0.07,-0.29 -0.11,-0.43l-0.01 0c-0.04,0.14 -0.07,0.29 -0.1,0.44 -0.04,0.14 -0.07,0.29 -0.11,0.42zm-0.97 1.34l0.84 -2.66 0.72 0 0.83 2.66 -0.64 0 -0.16 -0.63 -0.81 0 -0.16 0.63 -0.62 0z"/>
  <path id="_3" fill="#CE9028" fill-rule="nonzero" d="M109.83 18.05l0 -2.66 0.62 0 0.69 1.33 0.26 0.58 0.02 0c-0.02,-0.14 -0.03,-0.3 -0.05,-0.47 -0.02,-0.17 -0.03,-0.34 -0.03,-0.5l0 -0.94 0.58 0 0 2.66 -0.62 0 -0.69 -1.32 -0.26 -0.58 -0.02 0c0.01,0.15 0.03,0.3 0.05,0.47 0.01,0.17 0.02,0.33 0.02,0.49l0 0.94 -0.57 0z"/>
  <path id="_4" fill="#CE9028" fill-rule="nonzero" d="M113.63 18.1c-0.18,0 -0.35,-0.03 -0.5,-0.09 -0.14,-0.07 -0.27,-0.16 -0.38,-0.28 -0.1,-0.12 -0.19,-0.26 -0.24,-0.43 -0.06,-0.18 -0.09,-0.37 -0.09,-0.59 0,-0.22 0.03,-0.41 0.09,-0.58 0.05,-0.17 0.14,-0.31 0.24,-0.43 0.11,-0.11 0.24,-0.2 0.38,-0.26 0.15,-0.06 0.32,-0.09 0.5,-0.09 0.18,0 0.34,0.03 0.49,0.09 0.15,0.06 0.27,0.15 0.38,0.26 0.11,0.12 0.19,0.27 0.25,0.44 0.05,0.17 0.08,0.36 0.08,0.57 0,0.22 -0.03,0.41 -0.08,0.59 -0.06,0.17 -0.14,0.31 -0.25,0.43 -0.11,0.12 -0.23,0.21 -0.38,0.28 -0.15,0.06 -0.31,0.09 -0.49,0.09zm0 -0.51c0.18,0 0.32,-0.08 0.43,-0.24 0.1,-0.16 0.16,-0.37 0.16,-0.64 0,-0.26 -0.06,-0.47 -0.16,-0.62 -0.11,-0.15 -0.25,-0.23 -0.43,-0.23 -0.19,0 -0.33,0.08 -0.44,0.23 -0.1,0.15 -0.16,0.36 -0.16,0.62 0,0.27 0.06,0.48 0.16,0.64 0.11,0.16 0.25,0.24 0.44,0.24z"/>
  <polygon id="_5" fill="#CE9028" fill-rule="nonzero" points="116.15,18.05 116.15,15.39 117.82,15.39 117.82,15.9 116.75,15.9 116.75,16.43 117.66,16.43 117.66,16.94 116.75,16.94 116.75,17.55 117.86,17.55 117.86,18.05 "/>
  <path id="_6" fill="#CE9028" fill-rule="nonzero" d="M119.2 18.1c-0.17,0 -0.35,-0.03 -0.52,-0.09 -0.17,-0.07 -0.33,-0.16 -0.46,-0.29l0.34 -0.41c0.09,0.08 0.2,0.15 0.32,0.2 0.11,0.05 0.22,0.08 0.34,0.08 0.12,0 0.21,-0.03 0.28,-0.07 0.06,-0.05 0.09,-0.11 0.09,-0.19 0,-0.04 -0.01,-0.08 -0.03,-0.11 -0.02,-0.03 -0.04,-0.05 -0.08,-0.08 -0.03,-0.02 -0.07,-0.04 -0.12,-0.06 -0.05,-0.02 -0.1,-0.05 -0.16,-0.07l-0.34 -0.15c-0.07,-0.02 -0.14,-0.06 -0.2,-0.1 -0.06,-0.05 -0.12,-0.1 -0.17,-0.16 -0.05,-0.05 -0.09,-0.12 -0.12,-0.2 -0.03,-0.08 -0.05,-0.16 -0.05,-0.26 0,-0.11 0.03,-0.21 0.07,-0.31 0.05,-0.1 0.11,-0.18 0.2,-0.25 0.08,-0.08 0.18,-0.13 0.3,-0.17 0.11,-0.04 0.24,-0.06 0.38,-0.06 0.15,0 0.31,0.03 0.46,0.09 0.15,0.06 0.28,0.14 0.4,0.26l-0.31 0.38c-0.09,-0.07 -0.17,-0.12 -0.26,-0.16 -0.09,-0.04 -0.18,-0.06 -0.29,-0.06 -0.1,0 -0.19,0.02 -0.25,0.07 -0.06,0.04 -0.09,0.1 -0.09,0.17 0,0.05 0.01,0.08 0.03,0.11 0.02,0.03 0.05,0.05 0.09,0.08 0.03,0.02 0.08,0.04 0.13,0.06 0.04,0.02 0.1,0.04 0.15,0.07l0.35 0.14c0.16,0.06 0.29,0.15 0.38,0.27 0.1,0.11 0.14,0.26 0.14,0.45 0,0.11 -0.02,0.22 -0.06,0.32 -0.05,0.1 -0.11,0.18 -0.2,0.26 -0.09,0.07 -0.19,0.13 -0.32,0.18 -0.12,0.04 -0.26,0.06 -0.42,0.06z"/>
  <polygon id="_7" fill="#CE9028" fill-rule="nonzero" points="121.09,18.05 121.09,15.9 120.36,15.9 120.36,15.39 122.43,15.39 122.43,15.9 121.7,15.9 121.7,18.05 "/>
  <path id="_8" fill="#CE9028" fill-rule="nonzero" d="M122.84 18.05l0 -2.66 0.96 0c0.14,0 0.28,0.02 0.4,0.05 0.12,0.02 0.23,0.07 0.32,0.13 0.1,0.07 0.17,0.15 0.23,0.26 0.05,0.1 0.08,0.24 0.08,0.39 0,0.2 -0.05,0.36 -0.13,0.49 -0.09,0.12 -0.2,0.22 -0.35,0.28l0.61 1.06 -0.68 0 -0.51 -0.95 -0.33 0 0 0.95 -0.6 0zm0.6 -1.43l0.31 0c0.16,0 0.28,-0.03 0.36,-0.1 0.09,-0.07 0.13,-0.17 0.13,-0.3 0,-0.13 -0.04,-0.22 -0.13,-0.27 -0.08,-0.05 -0.2,-0.08 -0.36,-0.08l-0.31 0 0 0.75z"/>
  <path id="_9" fill="#CE9028" fill-rule="nonzero" d="M125.94 16.71l-0.07 0.24 0.57 0 -0.06 -0.24c-0.04,-0.13 -0.08,-0.28 -0.11,-0.43 -0.04,-0.15 -0.07,-0.29 -0.11,-0.43l-0.02 0c-0.03,0.14 -0.06,0.29 -0.1,0.44 -0.03,0.14 -0.07,0.29 -0.1,0.42zm-0.97 1.34l0.84 -2.66 0.72 0 0.83 2.66 -0.64 0 -0.16 -0.63 -0.81 0 -0.16 0.63 -0.62 0z"/>
  <polygon id="_10" fill="#CE9028" fill-rule="nonzero" points="127.87,18.05 127.87,15.9 127.14,15.9 127.14,15.39 129.21,15.39 129.21,15.9 128.47,15.9 128.47,18.05 "/>
  <path id="_11" fill="#CE9028" fill-rule="nonzero" d="M129.62 18.05l0 -2.66 1.67 0 0 0.51 -1.07 0 0 0.53 0.91 0 0 0.51 -0.91 0 0 0.61 1.11 0 0 0.5 -1.71 0zm0.82 -2.77l-0.27 -0.3 0.7 -0.57 0.32 0.38 -0.75 0.49z"/>
  <path id="_12" fill="#CE9028" fill-rule="nonzero" d="M133.03 18.1c-0.18,0 -0.35,-0.03 -0.51,-0.08 -0.16,-0.06 -0.3,-0.15 -0.41,-0.26 -0.12,-0.12 -0.21,-0.26 -0.28,-0.43 -0.07,-0.17 -0.1,-0.37 -0.1,-0.59 0,-0.22 0.04,-0.42 0.1,-0.59 0.07,-0.17 0.16,-0.32 0.28,-0.44 0.12,-0.12 0.26,-0.21 0.42,-0.27 0.15,-0.06 0.32,-0.09 0.5,-0.09 0.19,0 0.36,0.03 0.5,0.1 0.14,0.07 0.25,0.15 0.34,0.24l-0.32 0.39c-0.07,-0.06 -0.14,-0.11 -0.22,-0.16 -0.07,-0.04 -0.17,-0.06 -0.28,-0.06 -0.1,0 -0.2,0.02 -0.28,0.06 -0.09,0.04 -0.16,0.1 -0.23,0.17 -0.06,0.08 -0.11,0.17 -0.14,0.27 -0.04,0.11 -0.05,0.23 -0.05,0.36 0,0.28 0.06,0.49 0.18,0.64 0.13,0.15 0.31,0.23 0.56,0.23 0.06,0 0.11,-0.01 0.16,-0.02 0.05,-0.02 0.1,-0.04 0.13,-0.07l0 -0.45 -0.44 0 0 -0.49 0.97 0 0 1.22c-0.09,0.09 -0.21,0.17 -0.37,0.23 -0.15,0.06 -0.32,0.09 -0.51,0.09z"/>
  <polygon id="_13" fill="#CE9028" fill-rule="nonzero" points="134.46,18.05 134.46,15.39 135.06,15.39 135.06,18.05 "/>
  <path id="_14" fill="#CE9028" fill-rule="nonzero" d="M136.8 18.1c-0.17,0 -0.33,-0.03 -0.48,-0.08 -0.15,-0.06 -0.28,-0.15 -0.39,-0.26 -0.12,-0.12 -0.2,-0.26 -0.27,-0.43 -0.06,-0.17 -0.1,-0.37 -0.1,-0.59 0,-0.22 0.04,-0.42 0.1,-0.59 0.07,-0.17 0.16,-0.32 0.28,-0.44 0.11,-0.12 0.25,-0.21 0.4,-0.27 0.15,-0.06 0.31,-0.09 0.48,-0.09 0.17,0 0.32,0.03 0.46,0.1 0.14,0.07 0.25,0.15 0.34,0.24l-0.32 0.39c-0.07,-0.07 -0.14,-0.12 -0.21,-0.16 -0.08,-0.04 -0.16,-0.06 -0.26,-0.06 -0.09,0 -0.17,0.02 -0.25,0.06 -0.08,0.04 -0.15,0.1 -0.21,0.17 -0.06,0.08 -0.11,0.17 -0.14,0.27 -0.03,0.11 -0.05,0.23 -0.05,0.36 0,0.28 0.06,0.49 0.17,0.64 0.12,0.15 0.28,0.23 0.47,0.23 0.11,0 0.21,-0.03 0.3,-0.08 0.08,-0.04 0.16,-0.1 0.22,-0.17l0.32 0.37c-0.22,0.26 -0.51,0.39 -0.86,0.39z"/>
  <path id="_15" fill="#CE9028" fill-rule="nonzero" d="M138.99 18.1c-0.18,0 -0.34,-0.03 -0.49,-0.09 -0.15,-0.07 -0.27,-0.16 -0.38,-0.28 -0.11,-0.12 -0.19,-0.26 -0.25,-0.43 -0.05,-0.18 -0.08,-0.37 -0.08,-0.59 0,-0.22 0.03,-0.41 0.08,-0.58 0.06,-0.17 0.14,-0.31 0.25,-0.43 0.11,-0.11 0.23,-0.2 0.38,-0.26 0.15,-0.06 0.31,-0.09 0.49,-0.09 0.18,0 0.35,0.03 0.5,0.09 0.14,0.06 0.27,0.15 0.38,0.26 0.1,0.12 0.19,0.27 0.24,0.44 0.06,0.17 0.09,0.36 0.09,0.57 0,0.22 -0.03,0.41 -0.09,0.59 -0.05,0.17 -0.14,0.31 -0.24,0.43 -0.11,0.12 -0.24,0.21 -0.38,0.28 -0.15,0.06 -0.32,0.09 -0.5,0.09zm0 -0.51c0.19,0 0.33,-0.08 0.44,-0.24 0.1,-0.16 0.16,-0.37 0.16,-0.64 0,-0.26 -0.06,-0.47 -0.16,-0.62 -0.11,-0.15 -0.25,-0.23 -0.44,-0.23 -0.18,0 -0.32,0.08 -0.43,0.23 -0.1,0.15 -0.16,0.36 -0.16,0.62 0,0.27 0.06,0.48 0.16,0.64 0.11,0.16 0.25,0.24 0.43,0.24z"/>
  <path id="_16" fill="#CE9028" fill-rule="nonzero" d="M141.36 18.05l0 -0.34c0.16,-0.15 0.31,-0.3 0.45,-0.43 0.14,-0.14 0.26,-0.26 0.36,-0.38 0.1,-0.12 0.17,-0.23 0.23,-0.33 0.06,-0.1 0.08,-0.2 0.08,-0.29 0,-0.13 -0.03,-0.23 -0.09,-0.3 -0.07,-0.06 -0.16,-0.1 -0.27,-0.1 -0.1,0 -0.18,0.03 -0.26,0.08 -0.07,0.06 -0.14,0.12 -0.21,0.19l-0.32 -0.32c0.13,-0.14 0.26,-0.24 0.39,-0.31 0.13,-0.07 0.29,-0.11 0.48,-0.11 0.13,0 0.24,0.02 0.35,0.06 0.1,0.04 0.19,0.1 0.27,0.17 0.07,0.07 0.13,0.16 0.17,0.26 0.04,0.1 0.06,0.21 0.06,0.34 0,0.11 -0.02,0.22 -0.07,0.33 -0.04,0.11 -0.1,0.23 -0.18,0.34 -0.08,0.11 -0.17,0.23 -0.27,0.34 -0.1,0.11 -0.2,0.22 -0.3,0.33 0.06,-0.01 0.13,-0.01 0.21,-0.02 0.08,-0.01 0.16,-0.01 0.22,-0.01l0.52 0 0 0.5 -1.82 0z"/>
  <path id="_17" fill="#CE9028" fill-rule="nonzero" d="M144.44 18.1c-0.14,0 -0.27,-0.03 -0.38,-0.08 -0.12,-0.06 -0.21,-0.15 -0.29,-0.26 -0.08,-0.12 -0.15,-0.26 -0.19,-0.43 -0.05,-0.17 -0.07,-0.36 -0.07,-0.58 0,-0.22 0.02,-0.41 0.07,-0.58 0.04,-0.17 0.11,-0.31 0.19,-0.42 0.08,-0.11 0.17,-0.2 0.29,-0.25 0.11,-0.06 0.24,-0.09 0.38,-0.09 0.14,0 0.26,0.03 0.38,0.09 0.11,0.05 0.21,0.14 0.29,0.25 0.08,0.11 0.14,0.25 0.19,0.42 0.04,0.17 0.06,0.36 0.06,0.58 0,0.22 -0.02,0.41 -0.06,0.58 -0.05,0.17 -0.11,0.31 -0.19,0.43 -0.08,0.11 -0.18,0.2 -0.29,0.26 -0.12,0.05 -0.24,0.08 -0.38,0.08zm0 -0.46c0.05,0 0.1,-0.01 0.14,-0.04 0.04,-0.03 0.08,-0.07 0.11,-0.14 0.04,-0.07 0.06,-0.16 0.08,-0.27 0.02,-0.12 0.03,-0.26 0.03,-0.44 0,-0.18 -0.01,-0.32 -0.03,-0.44 -0.02,-0.11 -0.04,-0.2 -0.08,-0.26 -0.03,-0.06 -0.07,-0.11 -0.11,-0.13 -0.04,-0.03 -0.09,-0.04 -0.14,-0.04 -0.05,0 -0.1,0.01 -0.14,0.04 -0.04,0.02 -0.08,0.07 -0.12,0.13 -0.03,0.06 -0.05,0.15 -0.07,0.26 -0.02,0.12 -0.03,0.26 -0.03,0.44 0,0.18 0.01,0.32 0.03,0.44 0.02,0.11 0.04,0.2 0.07,0.27 0.04,0.07 0.08,0.11 0.12,0.14 0.04,0.03 0.09,0.04 0.14,0.04z"/>
  <path id="_18" fill="#CE9028" fill-rule="nonzero" d="M145.67 18.05l0 -0.34c0.16,-0.15 0.31,-0.3 0.45,-0.43 0.14,-0.14 0.26,-0.26 0.36,-0.38 0.1,-0.12 0.17,-0.23 0.23,-0.33 0.05,-0.1 0.08,-0.2 0.08,-0.29 0,-0.13 -0.03,-0.23 -0.1,-0.3 -0.06,-0.06 -0.15,-0.1 -0.27,-0.1 -0.09,0 -0.17,0.03 -0.25,0.08 -0.07,0.06 -0.14,0.12 -0.21,0.19l-0.32 -0.32c0.13,-0.14 0.26,-0.24 0.39,-0.31 0.13,-0.07 0.29,-0.11 0.48,-0.11 0.12,0 0.24,0.02 0.35,0.06 0.1,0.04 0.19,0.1 0.27,0.17 0.07,0.07 0.13,0.16 0.17,0.26 0.04,0.1 0.06,0.21 0.06,0.34 0,0.11 -0.02,0.22 -0.07,0.33 -0.04,0.11 -0.1,0.23 -0.18,0.34 -0.08,0.11 -0.17,0.23 -0.27,0.34 -0.1,0.11 -0.2,0.22 -0.31,0.33 0.07,-0.01 0.14,-0.01 0.22,-0.02 0.08,-0.01 0.16,-0.01 0.22,-0.01l0.52 0 0 0.5 -1.82 0z"/>
  <path id="_19" fill="#CE9028" fill-rule="nonzero" d="M147.96 18.05l0 -0.48 0.56 0 0 -1.5 -0.49 0 0 -0.37c0.14,-0.03 0.26,-0.06 0.36,-0.1 0.1,-0.04 0.19,-0.08 0.29,-0.14l0.44 0 0 2.11 0.48 0 0 0.48 -1.64 0z"/>
  <path id="_20" fill="#CE9028" fill-rule="nonzero" d="M151.34 17.55c-0.07,0 -0.14,-0.01 -0.21,-0.04 -0.07,-0.03 -0.12,-0.07 -0.17,-0.12 -0.05,-0.05 -0.09,-0.11 -0.12,-0.18 -0.02,-0.07 -0.04,-0.14 -0.04,-0.22 0,-0.09 0.02,-0.16 0.04,-0.23 0.03,-0.07 0.07,-0.13 0.12,-0.18 0.05,-0.05 0.1,-0.09 0.17,-0.12 0.07,-0.03 0.14,-0.04 0.21,-0.04 0.08,0 0.15,0.01 0.22,0.04 0.06,0.03 0.12,0.07 0.17,0.12 0.05,0.05 0.09,0.11 0.11,0.18 0.03,0.07 0.04,0.14 0.04,0.23 0,0.08 -0.01,0.15 -0.04,0.22 -0.02,0.07 -0.06,0.13 -0.11,0.18 -0.05,0.05 -0.11,0.09 -0.17,0.12 -0.07,0.03 -0.14,0.04 -0.22,0.04z"/>
  <path id="_21" fill="#CE9028" fill-rule="nonzero" d="M153.02 18.05l0 -0.34c0.16,-0.15 0.31,-0.3 0.45,-0.43 0.14,-0.14 0.26,-0.26 0.35,-0.38 0.1,-0.12 0.18,-0.23 0.24,-0.33 0.05,-0.1 0.08,-0.2 0.08,-0.29 0,-0.13 -0.03,-0.23 -0.1,-0.3 -0.06,-0.06 -0.15,-0.1 -0.27,-0.1 -0.09,0 -0.18,0.03 -0.25,0.08 -0.07,0.06 -0.14,0.12 -0.21,0.19l-0.32 -0.32c0.12,-0.14 0.25,-0.24 0.39,-0.31 0.13,-0.07 0.29,-0.11 0.48,-0.11 0.12,0 0.24,0.02 0.34,0.06 0.11,0.04 0.2,0.1 0.28,0.17 0.07,0.07 0.13,0.16 0.17,0.26 0.04,0.1 0.06,0.21 0.06,0.34 0,0.11 -0.02,0.22 -0.07,0.33 -0.04,0.11 -0.1,0.23 -0.18,0.34 -0.08,0.11 -0.17,0.23 -0.27,0.34 -0.1,0.11 -0.2,0.22 -0.31,0.33 0.07,-0.01 0.14,-0.01 0.22,-0.02 0.08,-0.01 0.15,-0.01 0.22,-0.01l0.52 0 0 0.5 -1.82 0z"/>
  <path id="_22" fill="#CE9028" fill-rule="nonzero" d="M156.1 18.1c-0.14,0 -0.27,-0.03 -0.38,-0.08 -0.12,-0.06 -0.22,-0.15 -0.3,-0.26 -0.08,-0.12 -0.14,-0.26 -0.18,-0.43 -0.05,-0.17 -0.07,-0.36 -0.07,-0.58 0,-0.22 0.02,-0.41 0.07,-0.58 0.04,-0.17 0.1,-0.31 0.18,-0.42 0.08,-0.11 0.18,-0.2 0.3,-0.25 0.11,-0.06 0.24,-0.09 0.38,-0.09 0.13,0 0.26,0.03 0.38,0.09 0.11,0.05 0.21,0.14 0.29,0.25 0.08,0.11 0.14,0.25 0.18,0.42 0.05,0.17 0.07,0.36 0.07,0.58 0,0.22 -0.02,0.41 -0.07,0.58 -0.04,0.17 -0.1,0.31 -0.18,0.43 -0.08,0.11 -0.18,0.2 -0.29,0.26 -0.12,0.05 -0.25,0.08 -0.38,0.08zm0 -0.46c0.05,0 0.1,-0.01 0.14,-0.04 0.04,-0.03 0.08,-0.07 0.11,-0.14 0.04,-0.07 0.06,-0.16 0.08,-0.27 0.02,-0.12 0.02,-0.26 0.02,-0.44 0,-0.18 0,-0.32 -0.02,-0.44 -0.02,-0.11 -0.04,-0.2 -0.08,-0.26 -0.03,-0.06 -0.07,-0.11 -0.11,-0.13 -0.04,-0.03 -0.09,-0.04 -0.14,-0.04 -0.05,0 -0.1,0.01 -0.14,0.04 -0.05,0.02 -0.08,0.07 -0.12,0.13 -0.03,0.06 -0.06,0.15 -0.07,0.26 -0.02,0.12 -0.03,0.26 -0.03,0.44 0,0.18 0.01,0.32 0.03,0.44 0.01,0.11 0.04,0.2 0.07,0.27 0.04,0.07 0.07,0.11 0.12,0.14 0.04,0.03 0.09,0.04 0.14,0.04z"/>
  <path id="_23" fill="#CE9028" fill-rule="nonzero" d="M157.32 18.05l0 -0.34c0.17,-0.15 0.32,-0.3 0.46,-0.43 0.14,-0.14 0.25,-0.26 0.35,-0.38 0.1,-0.12 0.18,-0.23 0.24,-0.33 0.05,-0.1 0.08,-0.2 0.08,-0.29 0,-0.13 -0.03,-0.23 -0.1,-0.3 -0.06,-0.06 -0.15,-0.1 -0.27,-0.1 -0.09,0 -0.18,0.03 -0.25,0.08 -0.07,0.06 -0.14,0.12 -0.21,0.19l-0.32 -0.32c0.12,-0.14 0.25,-0.24 0.39,-0.31 0.13,-0.07 0.29,-0.11 0.47,-0.11 0.13,0 0.25,0.02 0.35,0.06 0.11,0.04 0.2,0.1 0.28,0.17 0.07,0.07 0.13,0.16 0.17,0.26 0.04,0.1 0.06,0.21 0.06,0.34 0,0.11 -0.02,0.22 -0.07,0.33 -0.04,0.11 -0.11,0.23 -0.18,0.34 -0.08,0.11 -0.17,0.23 -0.27,0.34 -0.1,0.11 -0.2,0.22 -0.31,0.33 0.07,-0.01 0.14,-0.01 0.22,-0.02 0.08,-0.01 0.15,-0.01 0.22,-0.01l0.52 0 0 0.5 -1.83 0z"/>
  <path id="_24" fill="#CE9028" fill-rule="nonzero" d="M160.53 18.05l0 -0.62 -1.12 0 0 -0.41 0.94 -1.56 0.74 0 0 1.52 0.29 0 0 0.45 -0.29 0 0 0.62 -0.56 0zm-0.55 -1.07l0.55 0 0 -0.42c0,-0.09 0,-0.18 0.01,-0.29 0,-0.11 0.01,-0.21 0.01,-0.29l-0.01 0c-0.04,0.07 -0.07,0.14 -0.11,0.21 -0.03,0.08 -0.07,0.15 -0.11,0.22l-0.34 0.57z"/>
 </g>
</svg>
