<?xml version="1.0" encoding="UTF-8"?>
<!DOCTYPE svg PUBLIC "-//W3C//DTD SVG 1.1//EN" "http://www.w3.org/Graphics/SVG/1.1/DTD/svg11.dtd">
<!-- Creator: CorelDRAW 2021 (64 Bit) -->
<svg xmlns="http://www.w3.org/2000/svg" xml:space="preserve" width="900px" height="96px" version="1.1" shape-rendering="geometricPrecision" text-rendering="geometricPrecision" image-rendering="optimizeQuality" fill-rule="evenodd" clip-rule="evenodd"
viewBox="0 0 27.67 2.97"
 xmlns:xlink="http://www.w3.org/1999/xlink"
 xmlns:xodm="http://www.corel.com/coreldraw/odm/2003">
 <defs>
   <linearGradient id="id0" gradientUnits="userSpaceOnUse" x1="13.85" y1="0" x2="13.85" y2="2.44">
    <stop offset="0" stop-opacity="1" stop-color="#19417B"/>
    <stop offset="1" stop-opacity="1" stop-color="#006CB5"/>
   </linearGradient>
 </defs>
 <g id="bg">
  <metadata id="CorelCorpID_0Corel-Layer"/>
  <path fill="#001C47" fill-rule="nonzero" d="M0 0.24l0.5 1.99c0.11,0.44 0.5,0.74 0.95,0.74l24.77 0c0.45,0 0.84,-0.3 0.95,-0.74l0.5 -1.99 -27.67 0z"/>
  <path fill="url(#id0)" d="M1.45 2.44l24.77 0c0.2,0 0.38,-0.13 0.43,-0.32l0.41 -2.12 -26.42 0 0.38 2.12c0.05,0.19 0.23,0.32 0.43,0.32z"/>
  <path fill="#CE9028" fill-rule="nonzero" d="M3.1 1.77l0.17 0 0 -0.26 0.09 0c0.16,0 0.3,-0.08 0.3,-0.25 0,-0.19 -0.14,-0.25 -0.3,-0.25l-0.26 0 0 0.76zm0.17 -0.39l0 -0.23 0.08 0c0.09,0 0.14,0.03 0.14,0.11 0,0.07 -0.05,0.12 -0.14,0.12l-0.08 0zm0.52 0.39l0.46 0 0 -0.15 -0.29 0 0 -0.61 -0.17 0 0 0.76zm0.76 -0.38c0.02,-0.08 0.04,-0.17 0.06,-0.25l0.01 0c0.02,0.08 0.04,0.17 0.06,0.25l0.02 0.06 -0.16 0 0.01 -0.06zm-0.27 0.38l0.17 0 0.05 -0.18 0.23 0 0.05 0.18 0.18 0 -0.24 -0.76 -0.2 0 -0.24 0.76zm0.76 0l0.16 0 0 -0.27c0,-0.09 -0.01,-0.19 -0.02,-0.27l0 0 0.08 0.16 0.19 0.38 0.18 0 0 -0.76 -0.16 0 0 0.27c0,0.09 0.01,0.19 0.02,0.27l-0.01 0 -0.07 -0.16 -0.2 -0.38 -0.17 0 0 0.76zm0.77 0l0.48 0 0 -0.15 -0.31 0 0 -0.17 0.25 0 0 -0.14 -0.25 0 0 -0.15 0.3 0 0 -0.15 -0.47 0 0 0.76zm0.8 0.01c0.17,0 0.24,-0.12 0.24,-0.26l0 -0.51 -0.17 0 0 0.49c0,0.1 -0.03,0.13 -0.09,0.13 -0.04,0 -0.08,-0.02 -0.11,-0.07l-0.11 0.08c0.05,0.09 0.13,0.14 0.24,0.14zm0.59 -0.39c0.02,-0.08 0.04,-0.17 0.06,-0.25l0.01 0c0.02,0.08 0.04,0.17 0.06,0.25l0.01 0.06 -0.16 0 0.02 -0.06zm-0.27 0.38l0.17 0 0.05 -0.18 0.23 0 0.04 0.18 0.19 0 -0.24 -0.76 -0.2 0 -0.24 0.76zm0.76 0l0.15 0 0 -0.28c0,-0.07 -0.01,-0.18 -0.02,-0.26l0 0 0.06 0.18 0.11 0.29 0.09 0 0.11 -0.29 0.06 -0.18 0.01 0c-0.01,0.08 -0.03,0.19 -0.03,0.26l0 0.28 0.16 0 0 -0.76 -0.19 0 -0.11 0.34c-0.02,0.04 -0.03,0.09 -0.05,0.14l0 0c-0.02,-0.05 -0.03,-0.1 -0.05,-0.14l-0.12 -0.34 -0.18 0 0 0.76zm0.88 0l0.48 0 0 -0.15 -0.31 0 0 -0.17 0.25 0 0 -0.14 -0.25 0 0 -0.15 0.3 0 0 -0.15 -0.47 0 0 0.76zm0.63 0l0.16 0 0 -0.27c0,-0.09 -0.01,-0.19 -0.02,-0.27l0 0 0.08 0.16 0.19 0.38 0.18 0 0 -0.76 -0.16 0 0 0.27c0,0.09 0.01,0.19 0.02,0.27l-0.01 0 -0.07 -0.16 -0.2 -0.38 -0.17 0 0 0.76zm0.91 0l0.17 0 0 -0.61 0.21 0 0 -0.15 -0.58 0 0 0.15 0.2 0 0 0.61zm0.77 0.01c0.2,0 0.34,-0.15 0.34,-0.39 0,-0.25 -0.14,-0.39 -0.34,-0.39 -0.2,0 -0.34,0.14 -0.34,0.39 0,0.24 0.14,0.39 0.34,0.39zm0 -0.15c-0.1,0 -0.17,-0.09 -0.17,-0.24 0,-0.15 0.07,-0.24 0.17,-0.24 0.1,0 0.17,0.09 0.17,0.24 0,0.15 -0.07,0.24 -0.17,0.24zm0.72 0.14l0.48 0 0 -0.15 -0.31 0 0 -0.17 0.25 0 0 -0.14 -0.25 0 0 -0.15 0.3 0 0 -0.15 -0.47 0 0 0.76zm0.86 0.01c0.18,0 0.28,-0.11 0.28,-0.23 0,-0.11 -0.06,-0.17 -0.15,-0.21l-0.09 -0.04c-0.07,-0.02 -0.12,-0.04 -0.12,-0.09 0,-0.04 0.04,-0.06 0.1,-0.06 0.06,0 0.1,0.02 0.15,0.06l0.09 -0.11c-0.07,-0.07 -0.16,-0.1 -0.24,-0.1 -0.16,0 -0.27,0.1 -0.27,0.22 0,0.11 0.07,0.18 0.15,0.21l0.1 0.04c0.06,0.03 0.11,0.04 0.11,0.09 0,0.05 -0.04,0.07 -0.11,0.07 -0.06,0 -0.13,-0.03 -0.18,-0.08l-0.1 0.12c0.08,0.07 0.18,0.11 0.28,0.11zm0.53 -0.01l0.17 0 0 -0.61 0.21 0 0 -0.15 -0.58 0 0 0.15 0.2 0 0 0.61zm0.5 0l0.17 0 0 -0.28 0.09 0 0.15 0.28 0.19 0 -0.18 -0.31c0.09,-0.03 0.14,-0.1 0.14,-0.21 0,-0.18 -0.13,-0.24 -0.29,-0.24l-0.27 0 0 0.76zm0.17 -0.41l0 -0.21 0.08 0c0.09,0 0.14,0.02 0.14,0.1 0,0.07 -0.05,0.11 -0.14,0.11l-0.08 0zm0.7 0.03c0.02,-0.08 0.04,-0.17 0.06,-0.25l0.01 0c0.02,0.08 0.04,0.17 0.06,0.25l0.01 0.06 -0.16 0 0.02 -0.06zm-0.27 0.38l0.17 0 0.05 -0.18 0.23 0 0.05 0.18 0.18 0 -0.24 -0.76 -0.2 0 -0.24 0.76zm0.82 0l0.17 0 0 -0.61 0.21 0 0 -0.15 -0.59 0 0 0.15 0.21 0 0 0.61zm0.49 0l0.49 0 0 -0.15 -0.32 0 0 -0.17 0.26 0 0 -0.14 -0.26 0 0 -0.15 0.31 0 0 -0.15 -0.48 0 0 0.76zm0.24 -0.79l0.21 -0.14 -0.09 -0.11 -0.2 0.17 0.08 0.08zm0.73 0.8c0.1,0 0.2,-0.04 0.25,-0.09l0 -0.35 -0.28 0 0 0.14 0.13 0 0 0.13c-0.02,0.02 -0.05,0.02 -0.08,0.02 -0.14,0 -0.21,-0.09 -0.21,-0.24 0,-0.15 0.08,-0.24 0.19,-0.24 0.07,0 0.11,0.02 0.15,0.06l0.08 -0.11c-0.04,-0.05 -0.12,-0.1 -0.23,-0.1 -0.2,0 -0.37,0.14 -0.37,0.39 0,0.26 0.16,0.39 0.37,0.39zm0.4 -0.01l0.17 0 0 -0.76 -0.17 0 0 0.76zm0.66 0.01c0.1,0 0.19,-0.04 0.25,-0.11l-0.09 -0.11c-0.04,0.04 -0.09,0.07 -0.15,0.07 -0.11,0 -0.18,-0.09 -0.18,-0.24 0,-0.15 0.08,-0.24 0.18,-0.24 0.06,0 0.1,0.02 0.14,0.06l0.09 -0.11c-0.05,-0.05 -0.13,-0.1 -0.23,-0.1 -0.19,0 -0.36,0.14 -0.36,0.39 0,0.26 0.16,0.39 0.35,0.39zm0.63 0c0.2,0 0.34,-0.15 0.34,-0.39 0,-0.25 -0.14,-0.39 -0.34,-0.39 -0.21,0 -0.35,0.14 -0.35,0.39 0,0.24 0.14,0.39 0.35,0.39zm0 -0.15c-0.11,0 -0.17,-0.09 -0.17,-0.24 0,-0.15 0.06,-0.24 0.17,-0.24 0.1,0 0.16,0.09 0.16,0.24 0,0.15 -0.06,0.24 -0.16,0.24zm0.66 0.14l0.52 0 0 -0.15 -0.15 0c-0.03,0 -0.08,0.01 -0.12,0.01 0.12,-0.12 0.23,-0.25 0.23,-0.38 0,-0.14 -0.09,-0.23 -0.24,-0.23 -0.1,0 -0.17,0.04 -0.24,0.12l0.09 0.09c0.03,-0.04 0.07,-0.08 0.13,-0.08 0.06,0 0.1,0.04 0.1,0.11 0,0.11 -0.13,0.23 -0.32,0.41l0 0.1zm0.87 0.01c0.16,0 0.27,-0.13 0.27,-0.38 0,-0.25 -0.11,-0.38 -0.27,-0.38 -0.15,0 -0.26,0.13 -0.26,0.38 0,0.25 0.11,0.38 0.26,0.38zm0 -0.13c-0.05,0 -0.1,-0.05 -0.1,-0.25 0,-0.2 0.05,-0.25 0.1,-0.25 0.06,0 0.11,0.05 0.11,0.25 0,0.2 -0.05,0.25 -0.11,0.25zm0.35 0.12l0.52 0 0 -0.15 -0.15 0c-0.03,0 -0.08,0.01 -0.12,0.01 0.12,-0.12 0.23,-0.25 0.23,-0.38 0,-0.14 -0.1,-0.23 -0.24,-0.23 -0.1,0 -0.17,0.04 -0.25,0.12l0.1 0.09c0.03,-0.04 0.07,-0.08 0.13,-0.08 0.06,0 0.1,0.04 0.1,0.11 0,0.11 -0.13,0.23 -0.32,0.41l0 0.1zm0.65 0l0.47 0 0 -0.14 -0.14 0 0 -0.6 -0.13 0c-0.05,0.03 -0.1,0.06 -0.18,0.07l0 0.1 0.14 0 0 0.43 -0.16 0 0 0.14zm0.96 -0.15c0.08,0 0.15,-0.07 0.15,-0.16 0,-0.09 -0.07,-0.16 -0.15,-0.16 -0.09,0 -0.15,0.07 -0.15,0.16 0,0.09 0.06,0.16 0.15,0.16zm0.47 0.15l0.52 0 0 -0.15 -0.15 0c-0.04,0 -0.09,0.01 -0.12,0.01 0.12,-0.12 0.23,-0.25 0.23,-0.38 0,-0.14 -0.1,-0.23 -0.24,-0.23 -0.11,0 -0.17,0.04 -0.25,0.12l0.1 0.09c0.03,-0.04 0.07,-0.08 0.13,-0.08 0.06,0 0.1,0.04 0.1,0.11 0,0.11 -0.13,0.23 -0.32,0.41l0 0.1zm0.87 0.01c0.16,0 0.26,-0.13 0.26,-0.38 0,-0.25 -0.1,-0.38 -0.26,-0.38 -0.15,0 -0.26,0.13 -0.26,0.38 0,0.25 0.11,0.38 0.26,0.38zm0 -0.13c-0.05,0 -0.1,-0.05 -0.1,-0.25 0,-0.2 0.05,-0.25 0.1,-0.25 0.06,0 0.1,0.05 0.1,0.25 0,0.2 -0.04,0.25 -0.1,0.25zm0.35 0.12l0.52 0 0 -0.15 -0.15 0c-0.04,0 -0.09,0.01 -0.12,0.01 0.11,-0.12 0.23,-0.25 0.23,-0.38 0,-0.14 -0.1,-0.23 -0.24,-0.23 -0.11,0 -0.18,0.04 -0.25,0.12l0.09 0.09c0.04,-0.04 0.08,-0.08 0.14,-0.08 0.06,0 0.1,0.04 0.1,0.11 0,0.11 -0.13,0.23 -0.32,0.41l0 0.1zm0.91 0l0.15 0 0 -0.18 0.09 0 0 -0.13 -0.09 0 0 -0.43 -0.2 0 -0.27 0.44 0 0.12 0.32 0 0 0.18zm-0.16 -0.31l0.1 -0.16c0.02,-0.04 0.04,-0.08 0.06,-0.12l0 0c0,0.04 0,0.12 0,0.16l0 0.12 -0.16 0z"/>
 </g>
</svg>
