<?xml version="1.0" encoding="UTF-8"?>
<!DOCTYPE svg PUBLIC "-//W3C//DTD SVG 1.1//EN" "http://www.w3.org/Graphics/SVG/1.1/DTD/svg11.dtd">
<svg xmlns="http://www.w3.org/2000/svg" xml:space="preserve" width="263px" height="28px" version="1.1" shape-rendering="geometricPrecision" text-rendering="geometricPrecision" image-rendering="optimizeQuality" fill-rule="evenodd" clip-rule="evenodd"
viewBox="0 0 9.75 1.05"
 xmlns:xlink="http://www.w3.org/1999/xlink">
 <defs>
   <linearGradient id="id0" gradientUnits="userSpaceOnUse" x1="4.88" y1="0" x2="4.88" y2="0.86">
    <stop offset="0" stop-opacity="1" stop-color="#19417B"/>
    <stop offset="1" stop-opacity="1" stop-color="#006CB5"/>
   </linearGradient>
 </defs>
 <g id="bg">
  <metadata />
  <path fill="#001C47" fill-rule="nonzero" d="M0 0.08l0.18 0.71c0.03,0.15 0.17,0.26 0.33,0.26l8.72 0c0.16,0 0.3,-0.11 0.34,-0.26l0.18 -0.7 -9.75 -0.01z"/>
  <path fill="url(#id0)" d="M0.51 0.86l8.72 0c0.08,0 0.14,-0.05 0.16,-0.11l0.14 -0.75 -9.3 0 0.13 0.75c0.02,0.06 0.08,0.11 0.15,0.11z"/>
  <path fill="#CE9028" fill-rule="nonzero" d="M2.19 0.59l0 -0.24 0.08 0c0.02,0 0.03,0 0.04,0 0.01,0.01 0.02,0.01 0.03,0.02 0.01,0 0.02,0.01 0.02,0.02 0.01,0.01 0.01,0.02 0.01,0.04 0,0.01 0,0.03 -0.01,0.04 0,0.01 -0.01,0.02 -0.02,0.02 -0.01,0.01 -0.02,0.01 -0.03,0.02 -0.01,0 -0.02,0 -0.04,0l-0.03 0 0 0.08 -0.05 0zm0.05 -0.12l0.03 0c0.03,0 0.05,-0.02 0.05,-0.04 0,-0.01 -0.01,-0.02 -0.02,-0.03 0,0 -0.02,-0.01 -0.03,-0.01l-0.03 0 0 0.08z"/>
  <polygon id="_1" fill="#CE9028" fill-rule="nonzero" points="2.41,0.59 2.41,0.35 2.47,0.35 2.47,0.55 2.56,0.55 2.56,0.59 "/>
  <path id="_2" fill="#CE9028" fill-rule="nonzero" d="M2.66 0.47l0 0.02 0.05 0 -0.01 -0.02c0,-0.01 -0.01,-0.02 -0.01,-0.04 0,-0.01 -0.01,-0.03 -0.01,-0.04l0 0c0,0.02 -0.01,0.03 -0.01,0.04 0,0.02 -0.01,0.03 -0.01,0.04zm-0.09 0.12l0.08 -0.24 0.07 0 0.07 0.24 -0.06 0 -0.01 -0.05 -0.08 0 -0.01 0.05 -0.06 0z"/>
  <path id="_3" fill="#CE9028" fill-rule="nonzero" d="M2.82 0.59l0 -0.24 0.06 0 0.06 0.12 0.02 0.06 0 0c0,-0.02 0,-0.03 0,-0.05 0,-0.01 0,-0.03 0,-0.04l0 -0.09 0.05 0 0 0.24 -0.06 0 -0.06 -0.12 -0.02 -0.05 -0.01 0c0.01,0.01 0.01,0.03 0.01,0.04 0,0.02 0,0.03 0,0.05l0 0.08 -0.05 0z"/>
  <path id="_4" fill="#CE9028" fill-rule="nonzero" d="M3.17 0.6c-0.02,0 -0.03,0 -0.05,-0.01 -0.01,-0.01 -0.02,-0.01 -0.03,-0.03 -0.01,-0.01 -0.02,-0.02 -0.03,-0.04 0,-0.01 0,-0.03 0,-0.05 0,-0.02 0,-0.04 0,-0.05 0.01,-0.02 0.02,-0.03 0.03,-0.04 0.01,-0.01 0.02,-0.02 0.03,-0.03 0.02,0 0.03,0 0.05,0 0.01,0 0.03,0 0.04,0 0.02,0.01 0.03,0.02 0.04,0.03 0.01,0.01 0.02,0.02 0.02,0.04 0.01,0.01 0.01,0.03 0.01,0.05 0,0.02 0,0.04 -0.01,0.05 0,0.02 -0.01,0.03 -0.02,0.04 -0.01,0.02 -0.02,0.02 -0.04,0.03 -0.01,0.01 -0.03,0.01 -0.04,0.01zm0 -0.05c0.01,0 0.03,-0.01 0.04,-0.02 0.01,-0.01 0.01,-0.03 0.01,-0.06 0,-0.02 0,-0.04 -0.01,-0.06 -0.01,-0.01 -0.03,-0.02 -0.04,-0.02 -0.02,0 -0.03,0.01 -0.04,0.02 -0.01,0.02 -0.02,0.04 -0.02,0.06 0,0.03 0.01,0.05 0.02,0.06 0.01,0.01 0.02,0.02 0.04,0.02z"/>
  <polygon id="_5" fill="#CE9028" fill-rule="nonzero" points="3.4,0.59 3.4,0.35 3.55,0.35 3.55,0.4 3.45,0.4 3.45,0.45 3.54,0.45 3.54,0.49 3.45,0.49 3.45,0.55 3.56,0.55 3.56,0.59 "/>
  <path id="_6" fill="#CE9028" fill-rule="nonzero" d="M3.68 0.6c-0.02,0 -0.03,0 -0.05,-0.01 -0.01,-0.01 -0.03,-0.01 -0.04,-0.03l0.03 -0.03c0.01,0 0.02,0.01 0.03,0.01 0.01,0.01 0.02,0.01 0.03,0.01 0.01,0 0.02,0 0.03,0 0,-0.01 0.01,-0.01 0.01,-0.02 0,-0.01 -0.01,-0.01 -0.01,-0.01 0,0 0,-0.01 0,-0.01 -0.01,0 -0.01,0 -0.02,-0.01 0,0 0,0 -0.01,0l-0.03 -0.01c-0.01,-0.01 -0.01,-0.01 -0.02,-0.01 -0.01,-0.01 -0.01,-0.01 -0.02,-0.02 0,0 0,-0.01 -0.01,-0.02 0,0 0,-0.01 0,-0.02 0,-0.01 0,-0.02 0.01,-0.03 0,-0.01 0.01,-0.02 0.01,-0.02 0.01,-0.01 0.02,-0.02 0.03,-0.02 0.01,0 0.02,0 0.04,0 0.01,0 0.02,0 0.04,0 0.01,0.01 0.02,0.02 0.04,0.03l-0.03 0.03c-0.01,0 -0.02,-0.01 -0.03,-0.01 -0.01,-0.01 -0.01,-0.01 -0.02,-0.01 -0.01,0 -0.02,0.01 -0.03,0.01 0,0 0,0.01 0,0.02 0,0 0,0 0,0 0,0.01 0,0.01 0.01,0.01 0,0 0,0.01 0.01,0.01 0,0 0.01,0 0.01,0l0.03 0.02c0.02,0 0.03,0.01 0.04,0.02 0.01,0.01 0.01,0.03 0.01,0.04 0,0.01 0,0.02 0,0.03 -0.01,0.01 -0.01,0.02 -0.02,0.03 -0.01,0 -0.02,0.01 -0.03,0.01 -0.01,0.01 -0.03,0.01 -0.04,0.01z"/>
  <polygon id="_7" fill="#CE9028" fill-rule="nonzero" points="3.85,0.59 3.85,0.4 3.79,0.4 3.79,0.35 3.98,0.35 3.98,0.4 3.91,0.4 3.91,0.59 "/>
  <path id="_8" fill="#CE9028" fill-rule="nonzero" d="M4.01 0.59l0 -0.24 0.09 0c0.02,0 0.03,0 0.04,0 0.01,0.01 0.02,0.01 0.03,0.02 0.01,0 0.01,0.01 0.02,0.02 0,0.01 0.01,0.02 0.01,0.04 0,0.01 -0.01,0.03 -0.01,0.04 -0.01,0.01 -0.02,0.02 -0.04,0.03l0.06 0.09 -0.06 0 -0.05 -0.08 -0.03 0 0 0.08 -0.06 0zm0.06 -0.13l0.03 0c0.01,0 0.02,0 0.03,-0.01 0.01,0 0.01,-0.01 0.01,-0.02 0,-0.02 0,-0.02 -0.01,-0.03 -0.01,0 -0.02,-0.01 -0.03,-0.01l-0.03 0 0 0.07z"/>
  <path id="_9" fill="#CE9028" fill-rule="nonzero" d="M4.3 0.47l-0.01 0.02 0.06 0 -0.01 -0.02c0,-0.01 -0.01,-0.02 -0.01,-0.04 0,-0.01 -0.01,-0.03 -0.01,-0.04l0 0c0,0.02 -0.01,0.03 -0.01,0.04 0,0.02 -0.01,0.03 -0.01,0.04zm-0.09 0.12l0.08 -0.24 0.06 0 0.08 0.24 -0.06 0 -0.01 -0.05 -0.08 0 -0.01 0.05 -0.06 0z"/>
  <polygon id="_10" fill="#CE9028" fill-rule="nonzero" points="4.48,0.59 4.48,0.4 4.41,0.4 4.41,0.35 4.6,0.35 4.6,0.4 4.53,0.4 4.53,0.59 "/>
  <path id="_11" fill="#CE9028" fill-rule="nonzero" d="M4.64 0.59l0 -0.24 0.15 0 0 0.05 -0.1 0 0 0.05 0.09 0 0 0.04 -0.09 0 0 0.06 0.1 0 0 0.04 -0.15 0zm0.07 -0.25l-0.02 -0.03 0.06 -0.05 0.03 0.03 -0.07 0.05z"/>
  <path id="_12" fill="#CE9028" fill-rule="nonzero" d="M4.95 0.6c-0.02,0 -0.03,0 -0.05,-0.01 -0.01,0 -0.02,-0.01 -0.03,-0.02 -0.01,-0.01 -0.02,-0.03 -0.03,-0.04 0,-0.02 -0.01,-0.04 -0.01,-0.06 0,-0.02 0.01,-0.03 0.01,-0.05 0.01,-0.02 0.02,-0.03 0.03,-0.04 0.01,-0.01 0.02,-0.02 0.04,-0.03 0.01,0 0.03,0 0.04,0 0.02,0 0.03,0 0.05,0.01 0.01,0 0.02,0.01 0.03,0.02l-0.03 0.03c-0.01,0 -0.01,-0.01 -0.02,-0.01 -0.01,0 -0.02,-0.01 -0.03,-0.01 -0.01,0 -0.02,0 -0.02,0.01 -0.01,0 -0.02,0.01 -0.02,0.01 -0.01,0.01 -0.01,0.02 -0.02,0.03 0,0.01 0,0.02 0,0.03 0,0.03 0,0.05 0.02,0.06 0.01,0.01 0.02,0.02 0.05,0.02 0,0 0.01,0 0.01,0 0.01,0 0.01,0 0.01,-0.01l0 -0.04 -0.04 0 0 -0.04 0.09 0 0 0.11c-0.01,0.01 -0.02,0.01 -0.03,0.02 -0.02,0.01 -0.03,0.01 -0.05,0.01z"/>
  <polygon id="_13" fill="#CE9028" fill-rule="nonzero" points="5.08,0.59 5.08,0.35 5.14,0.35 5.14,0.59 "/>
  <path id="_14" fill="#CE9028" fill-rule="nonzero" d="M5.3 0.6c-0.02,0 -0.03,0 -0.05,-0.01 -0.01,0 -0.02,-0.01 -0.03,-0.02 -0.01,-0.01 -0.02,-0.03 -0.03,-0.04 0,-0.02 -0.01,-0.04 -0.01,-0.06 0,-0.02 0.01,-0.03 0.01,-0.05 0.01,-0.02 0.02,-0.03 0.03,-0.04 0.01,-0.01 0.02,-0.02 0.04,-0.03 0.01,0 0.02,0 0.04,0 0.02,0 0.03,0 0.04,0.01 0.01,0 0.03,0.01 0.03,0.02l-0.03 0.03c0,0 -0.01,-0.01 -0.02,-0.01 0,-0.01 -0.01,-0.01 -0.02,-0.01 -0.01,0 -0.02,0 -0.02,0.01 -0.01,0 -0.02,0.01 -0.02,0.01 -0.01,0.01 -0.01,0.02 -0.01,0.03 -0.01,0.01 -0.01,0.02 -0.01,0.03 0,0.03 0.01,0.05 0.02,0.06 0.01,0.01 0.02,0.02 0.04,0.02 0.01,0 0.02,0 0.03,-0.01 0,0 0.01,0 0.02,-0.01l0.03 0.03c-0.02,0.03 -0.05,0.04 -0.08,0.04z"/>
  <path id="_15" fill="#CE9028" fill-rule="nonzero" d="M5.5 0.6c-0.02,0 -0.03,0 -0.05,-0.01 -0.01,-0.01 -0.02,-0.01 -0.03,-0.03 -0.01,-0.01 -0.02,-0.02 -0.02,-0.04 -0.01,-0.01 -0.01,-0.03 -0.01,-0.05 0,-0.02 0,-0.04 0.01,-0.05 0,-0.02 0.01,-0.03 0.02,-0.04 0.01,-0.01 0.02,-0.02 0.03,-0.03 0.02,0 0.03,0 0.05,0 0.02,0 0.03,0 0.04,0 0.02,0.01 0.03,0.02 0.04,0.03 0.01,0.01 0.02,0.02 0.02,0.04 0.01,0.01 0.01,0.03 0.01,0.05 0,0.02 0,0.04 -0.01,0.05 0,0.02 -0.01,0.03 -0.02,0.04 -0.01,0.02 -0.02,0.02 -0.04,0.03 -0.01,0.01 -0.02,0.01 -0.04,0.01zm0 -0.05c0.02,0 0.03,-0.01 0.04,-0.02 0.01,-0.01 0.01,-0.03 0.01,-0.06 0,-0.02 0,-0.04 -0.01,-0.06 -0.01,-0.01 -0.02,-0.02 -0.04,-0.02 -0.02,0 -0.03,0.01 -0.04,0.02 -0.01,0.02 -0.01,0.04 -0.01,0.06 0,0.03 0,0.05 0.01,0.06 0.01,0.01 0.02,0.02 0.04,0.02z"/>
  <path id="_16" fill="#CE9028" fill-rule="nonzero" d="M5.72 0.59l0 -0.03c0.01,-0.01 0.03,-0.02 0.04,-0.04 0.01,-0.01 0.02,-0.02 0.03,-0.03 0.01,-0.01 0.02,-0.02 0.02,-0.03 0.01,-0.01 0.01,-0.02 0.01,-0.03 0,-0.01 0,-0.02 -0.01,-0.03 0,0 -0.01,0 -0.02,0 -0.01,0 -0.02,0 -0.03,0 0,0.01 -0.01,0.01 -0.02,0.02l-0.03 -0.03c0.02,-0.01 0.03,-0.02 0.04,-0.03 0.01,0 0.03,-0.01 0.04,-0.01 0.02,0 0.03,0 0.04,0.01 0.01,0 0.01,0.01 0.02,0.01 0.01,0.01 0.01,0.02 0.02,0.03 0,0.01 0,0.02 0,0.03 0,0.01 0,0.02 0,0.03 -0.01,0.01 -0.01,0.02 -0.02,0.03 -0.01,0.01 -0.02,0.02 -0.02,0.03 -0.01,0.01 -0.02,0.02 -0.03,0.03 0,0 0.01,0 0.02,0 0,0 0.01,0 0.02,0l0.04 0 0 0.04 -0.16 0z"/>
  <path id="_17" fill="#CE9028" fill-rule="nonzero" d="M6 0.6c-0.01,0 -0.02,0 -0.03,-0.01 -0.02,0 -0.02,-0.01 -0.03,-0.02 -0.01,-0.01 -0.01,-0.03 -0.02,-0.04 0,-0.02 -0.01,-0.04 -0.01,-0.06 0,-0.02 0.01,-0.03 0.01,-0.05 0.01,-0.01 0.01,-0.03 0.02,-0.04 0.01,-0.01 0.01,-0.02 0.03,-0.02 0.01,-0.01 0.02,-0.01 0.03,-0.01 0.01,0 0.02,0 0.04,0.01 0.01,0 0.01,0.01 0.02,0.02 0.01,0.01 0.02,0.03 0.02,0.04 0,0.02 0.01,0.03 0.01,0.05 0,0.02 -0.01,0.04 -0.01,0.06 0,0.01 -0.01,0.03 -0.02,0.04 -0.01,0.01 -0.01,0.02 -0.02,0.02 -0.02,0.01 -0.03,0.01 -0.04,0.01zm0 -0.04c0,0 0.01,0 0.01,-0.01 0.01,0 0.01,0 0.01,-0.01 0.01,-0.01 0.01,-0.01 0.01,-0.03 0,-0.01 0,-0.02 0,-0.04 0,-0.01 0,-0.03 0,-0.04 0,-0.01 0,-0.01 -0.01,-0.02 0,-0.01 0,-0.01 -0.01,-0.01 0,0 -0.01,-0.01 -0.01,-0.01 0,0 -0.01,0.01 -0.01,0.01 -0.01,0 -0.01,0 -0.01,0.01 -0.01,0.01 -0.01,0.01 -0.01,0.02 0,0.01 0,0.03 0,0.04 0,0.02 0,0.03 0,0.04 0,0.02 0,0.02 0.01,0.03 0,0.01 0,0.01 0.01,0.01 0,0.01 0.01,0.01 0.01,0.01z"/>
  <path id="_18" fill="#CE9028" fill-rule="nonzero" d="M6.11 0.59l0 -0.03c0.02,-0.01 0.03,-0.02 0.04,-0.04 0.02,-0.01 0.03,-0.02 0.04,-0.03 0.01,-0.01 0.01,-0.02 0.02,-0.03 0,-0.01 0.01,-0.02 0.01,-0.03 0,-0.01 -0.01,-0.02 -0.01,-0.03 -0.01,0 -0.02,0 -0.03,0 -0.01,0 -0.01,0 -0.02,0 -0.01,0.01 -0.01,0.01 -0.02,0.02l-0.03 -0.03c0.01,-0.01 0.02,-0.02 0.04,-0.03 0.01,0 0.02,-0.01 0.04,-0.01 0.01,0 0.02,0 0.03,0.01 0.01,0 0.02,0.01 0.03,0.01 0,0.01 0.01,0.02 0.01,0.03 0.01,0.01 0.01,0.02 0.01,0.03 0,0.01 0,0.02 -0.01,0.03 0,0.01 -0.01,0.02 -0.01,0.03 -0.01,0.01 -0.02,0.02 -0.03,0.03 -0.01,0.01 -0.02,0.02 -0.03,0.03 0.01,0 0.02,0 0.02,0 0.01,0 0.02,0 0.02,0l0.05 0 0 0.04 -0.17 0z"/>
  <path id="_19" fill="#CE9028" fill-rule="nonzero" d="M6.32 0.59l0 -0.04 0.06 0 0 -0.14 -0.05 0 0 -0.03c0.01,0 0.02,-0.01 0.03,-0.01 0.01,0 0.02,-0.01 0.03,-0.01l0.04 0 0 0.19 0.05 0 0 0.04 -0.16 0z"/>
  <path id="_20" fill="#CE9028" fill-rule="nonzero" d="M6.63 0.55c0,0 -0.01,0 -0.01,-0.01 -0.01,0 -0.02,0 -0.02,-0.01 0,0 -0.01,-0.01 -0.01,-0.01 0,-0.01 0,-0.02 0,-0.02 0,-0.01 0,-0.02 0,-0.02 0,-0.01 0.01,-0.02 0.01,-0.02 0,-0.01 0.01,-0.01 0.02,-0.01 0,0 0.01,-0.01 0.01,-0.01 0.01,0 0.02,0.01 0.02,0.01 0.01,0 0.02,0 0.02,0.01 0.01,0 0.01,0.01 0.01,0.02 0,0 0,0.01 0,0.02 0,0 0,0.01 0,0.02 0,0 0,0.01 -0.01,0.01 0,0.01 -0.01,0.01 -0.02,0.01 0,0.01 -0.01,0.01 -0.02,0.01z"/>
  <path id="_21" fill="#CE9028" fill-rule="nonzero" d="M6.79 0.59l0 -0.03c0.01,-0.01 0.03,-0.02 0.04,-0.04 0.01,-0.01 0.02,-0.02 0.03,-0.03 0.01,-0.01 0.02,-0.02 0.02,-0.03 0.01,-0.01 0.01,-0.02 0.01,-0.03 0,-0.01 0,-0.02 -0.01,-0.03 0,0 -0.01,0 -0.02,0 -0.01,0 -0.02,0 -0.02,0 -0.01,0.01 -0.02,0.01 -0.02,0.02l-0.03 -0.03c0.01,-0.01 0.02,-0.02 0.03,-0.03 0.01,0 0.03,-0.01 0.05,-0.01 0.01,0 0.02,0 0.03,0.01 0.01,0 0.02,0.01 0.02,0.01 0.01,0.01 0.02,0.02 0.02,0.03 0,0.01 0,0.02 0,0.03 0,0.01 0,0.02 0,0.03 -0.01,0.01 -0.01,0.02 -0.02,0.03 -0.01,0.01 -0.01,0.02 -0.02,0.03 -0.01,0.01 -0.02,0.02 -0.03,0.03 0,0 0.01,0 0.02,0 0.01,0 0.01,0 0.02,0l0.05 0 0 0.04 -0.17 0z"/>
  <path id="_22" fill="#CE9028" fill-rule="nonzero" d="M7.07 0.6c-0.01,0 -0.02,0 -0.03,-0.01 -0.01,0 -0.02,-0.01 -0.03,-0.02 -0.01,-0.01 -0.01,-0.03 -0.02,-0.04 0,-0.02 0,-0.04 0,-0.06 0,-0.02 0,-0.03 0,-0.05 0.01,-0.01 0.01,-0.03 0.02,-0.04 0.01,-0.01 0.02,-0.02 0.03,-0.02 0.01,-0.01 0.02,-0.01 0.03,-0.01 0.01,0 0.03,0 0.04,0.01 0.01,0 0.02,0.01 0.02,0.02 0.01,0.01 0.02,0.03 0.02,0.04 0.01,0.02 0.01,0.03 0.01,0.05 0,0.02 0,0.04 -0.01,0.06 0,0.01 -0.01,0.03 -0.02,0.04 0,0.01 -0.01,0.02 -0.02,0.02 -0.01,0.01 -0.03,0.01 -0.04,0.01zm0 -0.04c0.01,0 0.01,0 0.02,-0.01 0,0 0,0 0.01,-0.01 0,-0.01 0,-0.01 0,-0.03 0,-0.01 0,-0.02 0,-0.04 0,-0.01 0,-0.03 0,-0.04 0,-0.01 0,-0.01 0,-0.02 -0.01,-0.01 -0.01,-0.01 -0.01,-0.01 -0.01,0 -0.01,-0.01 -0.02,-0.01 0,0 -0.01,0.01 -0.01,0.01 0,0 -0.01,0 -0.01,0.01 0,0.01 -0.01,0.01 -0.01,0.02 0,0.01 0,0.03 0,0.04 0,0.02 0,0.03 0,0.04 0,0.02 0.01,0.02 0.01,0.03 0,0.01 0.01,0.01 0.01,0.01 0,0.01 0.01,0.01 0.01,0.01z"/>
  <path id="_23" fill="#CE9028" fill-rule="nonzero" d="M7.18 0.59l0 -0.03c0.02,-0.01 0.03,-0.02 0.05,-0.04 0.01,-0.01 0.02,-0.02 0.03,-0.03 0.01,-0.01 0.02,-0.02 0.02,-0.03 0.01,-0.01 0.01,-0.02 0.01,-0.03 0,-0.01 0,-0.02 -0.01,-0.03 -0.01,0 -0.01,0 -0.03,0 0,0 -0.01,0 -0.02,0 -0.01,0.01 -0.01,0.01 -0.02,0.02l-0.03 -0.03c0.01,-0.01 0.03,-0.02 0.04,-0.03 0.01,0 0.03,-0.01 0.04,-0.01 0.01,0 0.02,0 0.03,0.01 0.01,0 0.02,0.01 0.03,0.01 0.01,0.01 0.01,0.02 0.02,0.03 0,0.01 0,0.02 0,0.03 0,0.01 0,0.02 -0.01,0.03 0,0.01 -0.01,0.02 -0.01,0.03 -0.01,0.01 -0.02,0.02 -0.03,0.03 -0.01,0.01 -0.02,0.02 -0.03,0.03 0.01,0 0.02,0 0.02,0 0.01,0 0.02,0 0.02,0l0.05 0 0 0.04 -0.17 0z"/>
  <path id="_24" fill="#CE9028" fill-rule="nonzero" d="M7.48 0.59l0 -0.05 -0.1 0 0 -0.04 0.08 -0.14 0.07 0 0 0.14 0.03 0 0 0.04 -0.03 0 0 0.05 -0.05 0zm-0.05 -0.09l0.05 0 0 -0.04c0,-0.01 0,-0.02 0,-0.03 0,-0.01 0,-0.02 0,-0.03l0 0c0,0.01 -0.01,0.02 -0.01,0.02 0,0.01 -0.01,0.02 -0.01,0.02l-0.03 0.06z"/>
 </g>
</svg>
