<?xml version="1.0" encoding="UTF-8"?>
<!DOCTYPE svg PUBLIC "-//W3C//DTD SVG 1.1//EN" "http://www.w3.org/Graphics/SVG/1.1/DTD/svg11.dtd">
<!-- Creator: CorelDRAW 2021 (64 Bit) -->
<svg xmlns="http://www.w3.org/2000/svg" xml:space="preserve" width="3000px" height="658px" version="1.1" shape-rendering="geometricPrecision" text-rendering="geometricPrecision" image-rendering="optimizeQuality" fill-rule="evenodd" clip-rule="evenodd"
viewBox="0 0 124.78 27.27"
 xmlns:xlink="http://www.w3.org/1999/xlink"
 xmlns:xodm="http://www.corel.com/coreldraw/odm/2003">
 <defs>
    <linearGradient id="id0" gradientUnits="userSpaceOnUse" x1="62.44" y1="17.47" x2="62.44" y2="25.51">
     <stop offset="0" stop-opacity="1" stop-color="#19417B"/>
     <stop offset="1" stop-opacity="1" stop-color="#006CB5"/>
    </linearGradient>
 </defs>
 <g id="bg">
  <metadata id="CorelCorpID_0Corel-Layer"/>
  <g id="_2154945031184">
   <polygon fill="#001C47" fill-rule="nonzero" points="0,21.19 124.78,21.19 124.78,0 0,0 "/>
   <path fill="#001C47" fill-rule="nonzero" d="M16.78 18.27l1.65 6.55c0.36,1.45 1.66,2.45 3.14,2.45l81.64 0c1.48,0 2.78,-1 3.14,-2.45l1.65 -6.55 -91.22 0z"/>
   <path fill="url(#id0)" d="M21.57 25.51l81.64 0c0.67,0 1.26,-0.43 1.43,-1.03l1.35 -7.01 -87.1 0 1.26 7.01c0.16,0.6 0.75,1.03 1.42,1.03z"/>
   <path fill="#CE9028" fill-rule="nonzero" d="M27 23.29l0.56 0 0 -0.84 0.3 0c0.53,0 0.97,-0.26 0.97,-0.84 0,-0.6 -0.44,-0.8 -0.98,-0.8l-0.85 0 0 2.48zm0.56 -1.28l0 -0.75 0.25 0c0.31,0 0.48,0.09 0.48,0.35 0,0.26 -0.15,0.4 -0.46,0.4l-0.27 0zm1.7 1.28l1.54 0 0 -0.47 -0.98 0 0 -2.01 -0.56 0 0 2.48zm2.53 -1.25c0.07,-0.25 0.14,-0.54 0.2,-0.8l0.01 0c0.07,0.26 0.14,0.55 0.2,0.8l0.06 0.23 -0.53 0 0.06 -0.23zm-0.89 1.25l0.57 0 0.15 -0.59 0.76 0 0.15 0.59 0.59 0 -0.77 -2.48 -0.68 0 -0.77 2.48zm2.49 0l0.53 0 0 -0.87c0,-0.3 -0.04,-0.63 -0.06,-0.9l0.01 0 0.24 0.54 0.65 1.23 0.57 0 0 -2.48 -0.53 0 0 0.88c0,0.29 0.05,0.64 0.07,0.9l-0.01 0 -0.25 -0.54 -0.65 -1.24 -0.57 0 0 2.48zm2.53 0l1.59 0 0 -0.47 -1.03 0 0 -0.57 0.84 0 0 -0.47 -0.84 0 0 -0.49 0.99 0 0 -0.48 -1.55 0 0 2.48zm2.65 0.05c0.55,0 0.8,-0.39 0.8,-0.87l0 -1.66 -0.56 0 0 1.61c0,0.33 -0.11,0.44 -0.31,0.44 -0.13,0 -0.26,-0.08 -0.35,-0.25l-0.38 0.28c0.17,0.3 0.42,0.45 0.8,0.45zm1.95 -1.3c0.07,-0.25 0.14,-0.54 0.2,-0.8l0.01 0c0.07,0.26 0.14,0.55 0.2,0.8l0.06 0.23 -0.53 0 0.06 -0.23zm-0.89 1.25l0.57 0 0.15 -0.59 0.75 0 0.16 0.59 0.59 0 -0.78 -2.48 -0.67 0 -0.77 2.48zm2.49 0l0.5 0 0 -0.9c0,-0.25 -0.04,-0.61 -0.07,-0.85l0.01 0 0.2 0.59 0.36 0.95 0.31 0 0.35 -0.95 0.2 -0.59 0.02 0c-0.03,0.24 -0.08,0.6 -0.08,0.85l0 0.9 0.51 0 0 -2.48 -0.61 0 -0.39 1.11c-0.05,0.14 -0.09,0.3 -0.14,0.45l-0.01 0c-0.05,-0.15 -0.1,-0.31 -0.15,-0.45l-0.4 -1.11 -0.61 0 0 2.48zm2.9 0l1.59 0 0 -0.47 -1.03 0 0 -0.57 0.84 0 0 -0.47 -0.84 0 0 -0.49 0.99 0 0 -0.48 -1.55 0 0 2.48zm2.08 0l0.54 0 0 -0.87c0,-0.3 -0.05,-0.63 -0.07,-0.9l0.01 0 0.25 0.54 0.64 1.23 0.58 0 0 -2.48 -0.54 0 0 0.88c0,0.29 0.05,0.64 0.07,0.9l-0.01 0 -0.25 -0.54 -0.64 -1.24 -0.58 0 0 2.48zm3.02 0l0.56 0 0 -2 0.68 0 0 -0.48 -1.93 0 0 0.48 0.69 0 0 2zm2.53 0.05c0.67,0 1.12,-0.49 1.12,-1.3 0,-0.8 -0.45,-1.27 -1.12,-1.27 -0.67,0 -1.13,0.46 -1.13,1.27 0,0.81 0.46,1.3 1.13,1.3zm0 -0.48c-0.34,0 -0.55,-0.32 -0.55,-0.82 0,-0.49 0.21,-0.79 0.55,-0.79 0.34,0 0.55,0.3 0.55,0.79 0,0.5 -0.21,0.82 -0.55,0.82zm2.35 0.43l1.59 0 0 -0.47 -1.03 0 0 -0.57 0.85 0 0 -0.47 -0.85 0 0 -0.49 1 0 0 -0.48 -1.56 0 0 2.48zm2.84 0.05c0.6,0 0.94,-0.36 0.94,-0.77 0,-0.35 -0.19,-0.55 -0.49,-0.67l-0.32 -0.13c-0.21,-0.09 -0.38,-0.14 -0.38,-0.29 0,-0.14 0.13,-0.23 0.32,-0.23 0.2,0 0.35,0.07 0.51,0.2l0.29 -0.35c-0.22,-0.22 -0.52,-0.33 -0.8,-0.33 -0.52,0 -0.88,0.33 -0.88,0.74 0,0.36 0.24,0.57 0.49,0.67l0.33 0.14c0.21,0.09 0.36,0.14 0.36,0.3 0,0.15 -0.12,0.24 -0.35,0.24 -0.21,0 -0.43,-0.11 -0.61,-0.26l-0.32 0.38c0.25,0.24 0.59,0.36 0.91,0.36zm1.77 -0.05l0.56 0 0 -2 0.68 0 0 -0.48 -1.92 0 0 0.48 0.68 0 0 2zm1.63 0l0.56 0 0 -0.89 0.31 0 0.47 0.89 0.63 0 -0.56 -0.99c0.26,-0.12 0.44,-0.35 0.44,-0.71 0,-0.59 -0.43,-0.78 -0.96,-0.78l-0.89 0 0 2.48zm0.56 -1.33l0 -0.7 0.29 0c0.29,0 0.45,0.08 0.45,0.33 0,0.24 -0.16,0.37 -0.45,0.37l-0.29 0zm2.32 0.08c0.07,-0.25 0.14,-0.54 0.2,-0.8l0.01 0c0.07,0.26 0.14,0.55 0.2,0.8l0.06 0.23 -0.53 0 0.06 -0.23zm-0.89 1.25l0.57 0 0.15 -0.59 0.76 0 0.15 0.59 0.59 0 -0.77 -2.48 -0.68 0 -0.77 2.48zm2.7 0l0.56 0 0 -2 0.68 0 0 -0.48 -1.92 0 0 0.48 0.68 0 0 2zm1.63 0l1.59 0 0 -0.47 -1.03 0 0 -0.57 0.84 0 0 -0.47 -0.84 0 0 -0.49 0.99 0 0 -0.48 -1.55 0 0 2.48zm0.76 -2.58l0.7 -0.46 -0.3 -0.36 -0.65 0.54 0.25 0.28zm2.42 2.63c0.34,0 0.64,-0.13 0.82,-0.3l0 -1.14 -0.91 0 0 0.46 0.41 0 0 0.42c-0.06,0.05 -0.16,0.08 -0.26,0.08 -0.47,0 -0.7,-0.3 -0.7,-0.81 0,-0.5 0.27,-0.8 0.65,-0.8 0.22,0 0.34,0.09 0.47,0.2l0.29 -0.36c-0.16,-0.17 -0.42,-0.32 -0.78,-0.32 -0.66,0 -1.21,0.48 -1.21,1.3 0,0.83 0.54,1.27 1.22,1.27zm1.33 -0.05l0.56 0 0 -2.48 -0.56 0 0 2.48zm2.18 0.05c0.32,0 0.6,-0.13 0.8,-0.36l-0.3 -0.36c-0.12,0.13 -0.28,0.24 -0.48,0.24 -0.36,0 -0.6,-0.3 -0.6,-0.81 0,-0.5 0.27,-0.8 0.61,-0.8 0.18,0 0.31,0.09 0.44,0.2l0.29 -0.36c-0.16,-0.17 -0.42,-0.32 -0.74,-0.32 -0.63,0 -1.17,0.48 -1.17,1.3 0,0.83 0.52,1.27 1.15,1.27zm2.05 0c0.66,0 1.12,-0.49 1.12,-1.3 0,-0.8 -0.46,-1.27 -1.12,-1.27 -0.67,0 -1.13,0.46 -1.13,1.27 0,0.81 0.46,1.3 1.13,1.3zm0 -0.48c-0.34,0 -0.56,-0.32 -0.56,-0.82 0,-0.49 0.22,-0.79 0.56,-0.79 0.33,0 0.55,0.3 0.55,0.79 0,0.5 -0.22,0.82 -0.55,0.82zm2.2 0.43l1.7 0 0 -0.47 -0.49 0c-0.11,0 -0.28,0.02 -0.4,0.03 0.39,-0.41 0.77,-0.84 0.77,-1.25 0,-0.46 -0.32,-0.77 -0.8,-0.77 -0.34,0 -0.57,0.13 -0.81,0.39l0.31 0.3c0.12,-0.13 0.25,-0.25 0.43,-0.25 0.21,0 0.34,0.13 0.34,0.37 0,0.34 -0.44,0.75 -1.05,1.34l0 0.31zm2.87 0.05c0.52,0 0.86,-0.44 0.86,-1.26 0,-0.82 -0.34,-1.25 -0.86,-1.25 -0.52,0 -0.86,0.43 -0.86,1.25 0,0.82 0.34,1.26 0.86,1.26zm0 -0.43c-0.19,0 -0.33,-0.18 -0.33,-0.83 0,-0.67 0.14,-0.81 0.33,-0.81 0.19,0 0.34,0.14 0.34,0.81 0,0.65 -0.15,0.83 -0.34,0.83zm1.15 0.38l1.7 0 0 -0.47 -0.49 0c-0.12,0 -0.28,0.02 -0.4,0.03 0.39,-0.41 0.77,-0.84 0.77,-1.25 0,-0.46 -0.33,-0.77 -0.8,-0.77 -0.35,0 -0.57,0.13 -0.81,0.39l0.3 0.3c0.13,-0.13 0.26,-0.25 0.43,-0.25 0.21,0 0.35,0.13 0.35,0.37 0,0.34 -0.44,0.75 -1.05,1.34l0 0.31zm2.13 0l1.54 0 0 -0.45 -0.46 0 0 -1.96 -0.41 0c-0.17,0.1 -0.34,0.17 -0.6,0.22l0 0.35 0.45 0 0 1.39 -0.52 0 0 0.45zm3.16 -0.46c0.28,0 0.5,-0.23 0.5,-0.53 0,-0.31 -0.22,-0.53 -0.5,-0.53 -0.28,0 -0.5,0.22 -0.5,0.53 0,0.3 0.22,0.53 0.5,0.53zm1.56 0.46l1.7 0 0 -0.47 -0.49 0c-0.11,0 -0.28,0.02 -0.4,0.03 0.39,-0.41 0.77,-0.84 0.77,-1.25 0,-0.46 -0.32,-0.77 -0.8,-0.77 -0.34,0 -0.57,0.13 -0.81,0.39l0.31 0.3c0.12,-0.13 0.25,-0.25 0.43,-0.25 0.2,0 0.34,0.13 0.34,0.37 0,0.34 -0.44,0.75 -1.05,1.34l0 0.31zm2.87 0.05c0.52,0 0.86,-0.44 0.86,-1.26 0,-0.82 -0.34,-1.25 -0.86,-1.25 -0.52,0 -0.86,0.43 -0.86,1.25 0,0.82 0.34,1.26 0.86,1.26zm0 -0.43c-0.19,0 -0.33,-0.18 -0.33,-0.83 0,-0.67 0.14,-0.81 0.33,-0.81 0.19,0 0.33,0.14 0.33,0.81 0,0.65 -0.14,0.83 -0.33,0.83zm1.15 0.38l1.69 0 0 -0.47 -0.48 0c-0.12,0 -0.28,0.02 -0.4,0.03 0.39,-0.41 0.77,-0.84 0.77,-1.25 0,-0.46 -0.33,-0.77 -0.8,-0.77 -0.35,0 -0.57,0.13 -0.81,0.39l0.3 0.3c0.12,-0.13 0.26,-0.25 0.43,-0.25 0.21,0 0.34,0.13 0.34,0.37 0,0.34 -0.43,0.75 -1.04,1.34l0 0.31zm2.98 0l0.52 0 0 -0.57 0.28 0 0 -0.43 -0.28 0 0 -1.41 -0.68 0 -0.88 1.45 0 0.39 1.04 0 0 0.57zm-0.51 -1l0.32 -0.52c0.07,-0.14 0.14,-0.28 0.2,-0.41l0.01 0c0,0.15 -0.02,0.38 -0.02,0.54l0 0.39 -0.51 0z"/>
   <g>
    <path fill="#EEF8FD" fill-rule="nonzero" d="M117.82 9.99c-0.25,-3.94 -2.61,-7.04 -5.48,-7.04l-99.9 0c-2.87,0 -5.23,3.1 -5.48,7.04l110.86 0z"/>
    <path fill="#EEF8FD" fill-rule="nonzero" d="M61.89 11.4l-54.93 0c0.24,3.97 2.6,7.07 5.48,7.07l49.45 0 0 -7.07z"/>
    <path fill="#EEF8FD" fill-rule="nonzero" d="M62.89 11.4l0 7.07 49.45 0c2.88,0 5.24,-3.1 5.49,-7.07l-54.94 0z"/>
   </g>
  </g>
 </g>
</svg>
