<?xml version="1.0" encoding="UTF-8"?>
<!DOCTYPE svg PUBLIC "-//W3C//DTD SVG 1.1//EN" "http://www.w3.org/Graphics/SVG/1.1/DTD/svg11.dtd">
<!-- Creator: CorelDRAW 2021 (64 Bit) -->
<svg xmlns="http://www.w3.org/2000/svg" xml:space="preserve" width="1000px" height="104px" version="1.1" shape-rendering="geometricPrecision" text-rendering="geometricPrecision" image-rendering="optimizeQuality" fill-rule="evenodd" clip-rule="evenodd"
viewBox="0 0 119.79 12.43"
 xmlns:xlink="http://www.w3.org/1999/xlink"
 xmlns:xodm="http://www.corel.com/coreldraw/odm/2003">
 <g id="Camada_x0020_1">
  <metadata id="CorelCorpID_0Corel-Layer"/>
  <polygon fill="white" fill-rule="nonzero" points="72.29,0 60.6,11.69 61.35,12.43 73.04,0.74 "/>
  <polygon fill="white" fill-rule="nonzero" points="83.98,0 72.29,11.69 73.04,12.43 84.72,0.74 "/>
  <polygon fill="white" fill-rule="nonzero" points="95.67,0 83.98,11.69 84.72,12.43 96.41,0.74 "/>
  <polygon fill="white" fill-rule="nonzero" points="107.36,0 95.67,11.69 96.41,12.43 108.1,0.74 "/>
  <polygon fill="white" fill-rule="nonzero" points="119.05,0 107.36,11.69 108.1,12.43 119.79,0.74 "/>
  <polygon fill="white" fill-rule="nonzero" points="11.69,0 0,11.69 0.74,12.43 12.43,0.74 "/>
  <polygon fill="white" fill-rule="nonzero" points="23.38,0 11.69,11.69 12.43,12.43 24.12,0.74 "/>
  <polygon fill="white" fill-rule="nonzero" points="35.07,0 23.38,11.69 24.12,12.43 35.81,0.74 "/>
  <polygon fill="white" fill-rule="nonzero" points="46.75,0 35.07,11.69 35.81,12.43 47.5,0.74 "/>
  <polygon fill="white" fill-rule="nonzero" points="46.75,11.69 47.5,12.43 59.19,0.74 58.44,0 "/>
 </g>
</svg>
