<?xml version="1.0" encoding="UTF-8"?>
<!DOCTYPE svg PUBLIC "-//W3C//DTD SVG 1.1//EN" "http://www.w3.org/Graphics/SVG/1.1/DTD/svg11.dtd">
<!-- Creator: CorelDRAW 2021 (64 Bit) -->
<svg xmlns="http://www.w3.org/2000/svg" xml:space="preserve" width="1001px" height="246px" version="1.1" shape-rendering="geometricPrecision" text-rendering="geometricPrecision" image-rendering="optimizeQuality" fill-rule="evenodd" clip-rule="evenodd"
viewBox="0 0 235.01 57.76"
 xmlns:xlink="http://www.w3.org/1999/xlink"
 xmlns:xodm="http://www.corel.com/coreldraw/odm/2003">
 <g id="Camada_x0020_1">
  <metadata id="CorelCorpID_0Corel-Layer"/>
  <g id="_1758484580176">
   <path fill="white" fill-rule="nonzero" d="M232.76 4.48c1.25,0 2.25,-1 2.25,-2.24 0,-1.24 -1,-2.24 -2.25,-2.24 -1.23,0 -2.23,1 -2.23,2.24 0,1.24 1,2.24 2.23,2.24z"/>
   <path fill="white" fill-rule="nonzero" d="M209.72 4.48c1.23,0 2.24,-1 2.24,-2.24 0,-1.24 -1.01,-2.24 -2.24,-2.24 -1.25,0 -2.24,1 -2.24,2.24 0,1.24 0.99,2.24 2.24,2.24z"/>
   <path fill="white" fill-rule="nonzero" d="M186.67 0c-1.25,0 -2.25,1 -2.25,2.24 0,1.24 1,2.24 2.25,2.24 1.23,0 2.24,-1 2.24,-2.24 0,-1.24 -1.01,-2.24 -2.24,-2.24z"/>
   <path fill="white" fill-rule="nonzero" d="M163.61 0c-1.24,0 -2.24,1 -2.24,2.24 0,1.24 1,2.24 2.24,2.24 1.24,0 2.24,-1 2.24,-2.24 0,-1.24 -1,-2.24 -2.24,-2.24z"/>
   <path fill="white" fill-rule="nonzero" d="M140.56 4.48c1.23,0 2.23,-1 2.23,-2.24 0,-1.24 -1,-2.24 -2.23,-2.24 -1.24,0 -2.24,1 -2.24,2.24 0,1.24 1,2.24 2.24,2.24z"/>
   <path fill="white" fill-rule="nonzero" d="M117.51 0c-1.25,0 -2.25,1 -2.25,2.24 0,1.24 1,2.24 2.25,2.24 1.23,0 2.24,-1 2.24,-2.24 0,-1.24 -1.01,-2.24 -2.24,-2.24z"/>
   <path fill="white" fill-rule="nonzero" d="M94.45 0c-1.24,0 -2.24,1 -2.24,2.24 0,1.24 1,2.24 2.24,2.24 1.24,0 2.24,-1 2.24,-2.24 0,-1.24 -1,-2.24 -2.24,-2.24z"/>
   <path fill="white" fill-rule="nonzero" d="M71.4 4.48c1.24,0 2.24,-1 2.24,-2.24 0,-1.24 -1,-2.24 -2.24,-2.24 -1.24,0 -2.25,1 -2.25,2.24 0,1.24 1.01,2.24 2.25,2.24z"/>
   <path fill="white" fill-rule="nonzero" d="M48.35 0c-1.24,0 -2.24,1 -2.24,2.24 0,1.24 1,2.24 2.24,2.24 1.23,0 2.24,-1 2.24,-2.24 0,-1.24 -1.01,-2.24 -2.24,-2.24z"/>
   <path fill="white" fill-rule="nonzero" d="M25.3 0c-1.25,0 -2.25,1 -2.25,2.24 0,1.24 1,2.24 2.25,2.24 1.23,0 2.24,-1 2.24,-2.24 0,-1.24 -1.01,-2.24 -2.24,-2.24z"/>
   <path fill="white" fill-rule="nonzero" d="M2.24 0c-1.24,0 -2.24,1 -2.24,2.24 0,1.24 1,2.24 2.24,2.24 1.24,0 2.24,-1 2.24,-2.24 0,-1.24 -1,-2.24 -2.24,-2.24z"/>
   <path fill="white" fill-rule="nonzero" d="M232.76 26.64c-1.23,0 -2.23,1 -2.23,2.24 0,1.24 1,2.24 2.23,2.24 1.25,0 2.25,-1 2.25,-2.24 0,-1.24 -1,-2.24 -2.25,-2.24z"/>
   <path fill="white" fill-rule="nonzero" d="M209.72 31.12c1.23,0 2.24,-1 2.24,-2.24 0,-1.24 -1.01,-2.24 -2.24,-2.24 -1.25,0 -2.24,1 -2.24,2.24 0,1.24 0.99,2.24 2.24,2.24z"/>
   <path fill="white" fill-rule="nonzero" d="M186.67 26.64c-1.25,0 -2.25,1 -2.25,2.24 0,1.24 1,2.24 2.25,2.24 1.23,0 2.24,-1 2.24,-2.24 0,-1.24 -1.01,-2.24 -2.24,-2.24z"/>
   <path fill="white" fill-rule="nonzero" d="M163.61 26.64c-1.24,0 -2.24,1 -2.24,2.24 0,1.24 1,2.24 2.24,2.24 1.24,0 2.24,-1 2.24,-2.24 0,-1.24 -1,-2.24 -2.24,-2.24z"/>
   <path fill="white" fill-rule="nonzero" d="M140.56 31.12c1.23,0 2.23,-1 2.23,-2.24 0,-1.24 -1,-2.24 -2.23,-2.24 -1.24,0 -2.24,1 -2.24,2.24 0,1.24 1,2.24 2.24,2.24z"/>
   <path fill="white" fill-rule="nonzero" d="M117.51 26.64c-1.25,0 -2.25,1 -2.25,2.24 0,1.24 1,2.24 2.25,2.24 1.23,0 2.24,-1 2.24,-2.24 0,-1.24 -1.01,-2.24 -2.24,-2.24z"/>
   <path fill="white" fill-rule="nonzero" d="M94.45 26.64c-1.24,0 -2.24,1 -2.24,2.24 0,1.24 1,2.24 2.24,2.24 1.24,0 2.24,-1 2.24,-2.24 0,-1.24 -1,-2.24 -2.24,-2.24z"/>
   <path fill="white" fill-rule="nonzero" d="M71.4 31.12c1.24,0 2.24,-1 2.24,-2.24 0,-1.24 -1,-2.24 -2.24,-2.24 -1.24,0 -2.25,1 -2.25,2.24 0,1.24 1.01,2.24 2.25,2.24z"/>
   <path fill="white" fill-rule="nonzero" d="M48.35 26.64c-1.24,0 -2.24,1 -2.24,2.24 0,1.24 1,2.24 2.24,2.24 1.23,0 2.24,-1 2.24,-2.24 0,-1.24 -1.01,-2.24 -2.24,-2.24z"/>
   <path fill="white" fill-rule="nonzero" d="M25.3 26.64c-1.25,0 -2.25,1 -2.25,2.24 0,1.24 1,2.24 2.25,2.24 1.23,0 2.24,-1 2.24,-2.24 0,-1.24 -1.01,-2.24 -2.24,-2.24z"/>
   <path fill="white" fill-rule="nonzero" d="M2.24 26.64c-1.24,0 -2.24,1 -2.24,2.24 0,1.24 1,2.24 2.24,2.24 1.24,0 2.24,-1 2.24,-2.24 0,-1.24 -1,-2.24 -2.24,-2.24z"/>
   <path fill="white" fill-rule="nonzero" d="M232.76 53.28c-1.23,0 -2.23,1 -2.23,2.25 0,1.23 1,2.23 2.23,2.23 1.25,0 2.25,-1 2.25,-2.23 0,-1.25 -1,-2.25 -2.25,-2.25z"/>
   <path fill="white" fill-rule="nonzero" d="M209.72 53.28c-1.24,0 -2.24,1 -2.24,2.25 0,1.23 1,2.23 2.24,2.23 1.23,0 2.24,-1 2.24,-2.23 0,-1.25 -1.01,-2.25 -2.24,-2.25z"/>
   <path fill="white" fill-rule="nonzero" d="M186.66 53.28c-1.24,0 -2.24,1 -2.24,2.25 0,1.23 1,2.23 2.24,2.23 1.24,0 2.25,-1 2.25,-2.23 0,-1.25 -1.01,-2.25 -2.25,-2.25z"/>
   <path fill="white" fill-rule="nonzero" d="M163.61 53.28c-1.24,0 -2.24,1 -2.24,2.25 0,1.23 1,2.23 2.24,2.23 1.24,0 2.24,-1 2.24,-2.23 0,-1.25 -1,-2.25 -2.24,-2.25z"/>
   <path fill="white" fill-rule="nonzero" d="M140.56 53.28c-1.24,0 -2.24,1 -2.24,2.25 0,1.23 1,2.23 2.24,2.23 1.23,0 2.23,-1 2.23,-2.23 0,-1.25 -1,-2.25 -2.23,-2.25z"/>
   <path fill="white" fill-rule="nonzero" d="M117.51 53.28c-1.25,0 -2.25,1 -2.25,2.25 0,1.23 1,2.23 2.25,2.23 1.23,0 2.24,-1 2.24,-2.23 0,-1.25 -1.01,-2.25 -2.24,-2.25z"/>
   <path fill="white" fill-rule="nonzero" d="M94.45 53.28c-1.24,0 -2.24,1 -2.24,2.25 0,1.23 1,2.23 2.24,2.23 1.24,0 2.24,-1 2.24,-2.23 0,-1.25 -1,-2.25 -2.24,-2.25z"/>
   <path fill="white" fill-rule="nonzero" d="M71.4 53.28c-1.24,0 -2.25,1 -2.25,2.25 0,1.23 1.01,2.23 2.25,2.23 1.24,0 2.24,-1 2.24,-2.23 0,-1.25 -1,-2.25 -2.24,-2.25z"/>
   <path fill="white" fill-rule="nonzero" d="M48.35 53.28c-1.24,0 -2.24,1 -2.24,2.25 0,1.23 1,2.23 2.24,2.23 1.23,0 2.24,-1 2.24,-2.23 0,-1.25 -1.01,-2.25 -2.24,-2.25z"/>
   <path fill="white" fill-rule="nonzero" d="M25.3 53.28c-1.25,0 -2.25,1 -2.25,2.25 0,1.23 1,2.23 2.25,2.23 1.23,0 2.24,-1 2.24,-2.23 0,-1.25 -1.01,-2.25 -2.24,-2.25z"/>
   <path fill="white" fill-rule="nonzero" d="M2.24 53.28c-1.24,0 -2.24,1 -2.24,2.25 0,1.23 1,2.23 2.24,2.23 1.24,0 2.24,-1 2.24,-2.23 0,-1.25 -1,-2.25 -2.24,-2.25z"/>
  </g>
 </g>
</svg>
