<?xml version="1.0" encoding="UTF-8"?>
<!DOCTYPE svg PUBLIC "-//W3C//DTD SVG 1.1//EN" "http://www.w3.org/Graphics/SVG/1.1/DTD/svg11.dtd">
<!-- Creator: CorelDRAW 2021 (64 Bit) -->
<svg xmlns="http://www.w3.org/2000/svg" xml:space="preserve" width="1156px" height="475px" version="1.1" shape-rendering="geometricPrecision" text-rendering="geometricPrecision" image-rendering="optimizeQuality" fill-rule="evenodd" clip-rule="evenodd"
viewBox="0 0 282.14 115.97"
 xmlns:xlink="http://www.w3.org/1999/xlink"
 xmlns:xodm="http://www.corel.com/coreldraw/odm/2003">
 <g id="Camada_x0020_1">
  <metadata id="CorelCorpID_0Corel-Layer"/>
  <g id="_2432920439888">
   <path fill="none" fill-rule="nonzero" stroke="#ED3A95" stroke-width="1.02" stroke-miterlimit="10" d="M24.5 48.32c10.62,0 18.74,-5.43 18.74,-21.91 0,-14.83 -7.88,-20.75 -18.74,-20.75 -11.05,0 -18.92,5.92 -18.92,20.75 0,15.99 7.87,21.91 18.92,21.91zm-0.12 -7.2c-4.4,0 -8.37,-3.3 -8.37,-14.71 0,-10.25 3.97,-13.55 8.37,-13.55 4.39,0 8.42,3.3 8.42,13.55 0,11.41 -4.03,14.71 -8.42,14.71z"/>
   <path fill="none" fill-rule="nonzero" stroke="#ED3A95" stroke-width="1.02" stroke-miterlimit="10" d="M46.71 34.89c-1.4,8.79 5.5,13.43 15.57,13.43 10.74,0 16.23,-5.31 16.23,-12.69 0,-8.55 -7.38,-11.05 -13.61,-13.13 -4.03,-1.4 -7.32,-2.44 -7.32,-5.85 0,-2.57 1.83,-3.79 5.06,-3.79 4.82,0 6.53,2.69 5.92,7.45l9.34 -0.86c1.34,-6.28 -2.13,-13.55 -14.46,-13.79 -10.07,-0.25 -15.99,4.45 -15.99,12.14 0,8.61 7.44,11.54 13.48,13.62 4.03,1.46 7.45,2.31 7.45,5.73 0,2.26 -1.46,3.97 -5.74,3.97 -6.47,0 -7.75,-3.78 -7.02,-7.08l-8.91 0.85z"/>
   <polygon fill="none" fill-rule="nonzero" stroke="#ED3A95" stroke-width="1.02" stroke-miterlimit="10" points="95.54,47.59 123.43,47.59 123.43,40.02 105.73,40.02 105.73,30.38 120.08,30.38 120.08,22.81 105.73,22.81 105.73,13.96 122.82,13.96 122.82,6.39 95.54,6.39 "/>
   <polygon fill="none" fill-rule="nonzero" stroke="#ED3A95" stroke-width="1.02" stroke-miterlimit="10" points="126.91,13.59 132.4,13.59 132.4,40.39 126.91,40.39 126.91,47.59 148.15,47.59 148.15,40.39 142.6,40.39 142.6,13.59 148.15,13.59 148.15,6.39 126.91,6.39 "/>
   <path fill="none" fill-rule="nonzero" stroke="#ED3A95" stroke-width="1.02" stroke-miterlimit="10" d="M149.49 47.59l9.77 0 5.43 -9.46c1.28,-2.26 2.2,-4.4 2.2,-4.4l0.24 0c0,0 0.92,2.2 2.14,4.34l5.37 9.52 11.78 0 -12.75 -22.16 11.23 -19.04 -9.77 0 -4.09 7.14c-1.28,2.2 -2.26,4.52 -2.26,4.52l-0.24 0c0,0 -0.98,-2.32 -2.14,-4.46l-4.03 -7.2 -11.78 0 11.48 19.96 -12.58 21.24z"/>
   <path fill="none" fill-rule="nonzero" stroke="#ED3A95" stroke-width="1.02" stroke-miterlimit="10" d="M205.16 48.32c10.62,0 18.74,-5.43 18.74,-21.91 0,-14.83 -7.88,-20.75 -18.74,-20.75 -11.05,0 -18.92,5.92 -18.92,20.75 0,15.99 7.87,21.91 18.92,21.91zm-0.12 -7.2c-4.4,0 -8.36,-3.3 -8.36,-14.71 0,-10.25 3.96,-13.55 8.36,-13.55 4.39,0 8.42,3.3 8.42,13.55 0,11.41 -4.03,14.71 -8.42,14.71z"/>
   <path fill="none" fill-rule="nonzero" stroke="#ED3A95" stroke-width="1.02" stroke-miterlimit="10" d="M227.38 34.89c-1.41,8.79 5.49,13.43 15.56,13.43 10.74,0 16.24,-5.31 16.24,-12.69 0,-8.55 -7.39,-11.05 -13.62,-13.13 -4.02,-1.4 -7.32,-2.44 -7.32,-5.85 0,-2.57 1.83,-3.79 5.07,-3.79 4.82,0 6.53,2.69 5.92,7.45l9.33 -0.86c1.35,-6.28 -2.13,-13.55 -14.46,-13.79 -10.07,-0.25 -15.99,4.45 -15.99,12.14 0,8.61 7.44,11.54 13.49,13.62 4.02,1.46 7.44,2.31 7.44,5.73 0,2.26 -1.46,3.97 -5.73,3.97 -6.47,0 -7.76,-3.78 -7.02,-7.08l-8.91 0.85z"/>
   <path fill="none" fill-rule="nonzero" stroke="#ED3A95" stroke-width="1.02" stroke-miterlimit="10" d="M7.47 114.73l15.74 0c10.63,0 18.19,-6.72 18.19,-20.81 0,-14.41 -7.93,-20.39 -18.19,-20.39l-15.74 0 0 41.2zm10.19 -7.39l0 -26.42 4.58 0c4.52,0 8.85,2.38 8.85,13 0,10.68 -4.33,13.42 -8.85,13.42l-4.58 0z"/>
   <path fill="none" fill-rule="nonzero" stroke="#ED3A95" stroke-width="1.02" stroke-miterlimit="10" d="M64.05 115.46c10.62,0 18.74,-5.43 18.74,-21.91 0,-14.83 -7.88,-20.75 -18.74,-20.75 -11.05,0 -18.92,5.92 -18.92,20.75 0,15.99 7.87,21.91 18.92,21.91zm-0.12 -7.2c-4.4,0 -8.37,-3.3 -8.37,-14.71 0,-10.25 3.97,-13.55 8.37,-13.55 4.39,0 8.42,3.3 8.42,13.55 0,11.41 -4.03,14.71 -8.42,14.71z"/>
   <path fill="none" fill-rule="nonzero" stroke="#ED3A95" stroke-width="1.02" stroke-miterlimit="10" d="M99.75 114.73l10.2 0 0 -14.71 7.07 0c8.31,0 13.98,-5.19 13.98,-14.16 0,-8.24 -5.86,-12.33 -13.98,-12.33l-17.27 0 0 41.2zm14.96 -33.81c3.17,0 6.04,1.34 6.04,5.55 0,4.45 -2.87,6.16 -6.04,6.16l-4.76 0 0 -11.71 4.76 0z"/>
   <polygon fill="none" fill-rule="nonzero" stroke="#ED3A95" stroke-width="1.02" stroke-miterlimit="10" points="135.64,114.73 162.98,114.73 162.98,107.16 145.83,107.16 145.83,73.53 135.64,73.53 "/>
   <path fill="none" fill-rule="nonzero" stroke="#ED3A95" stroke-width="1.02" stroke-miterlimit="10" d="M163.53 114.73l8.92 0 2.5 -7.81 13.79 0 2.57 7.81 10.31 0 -13.92 -41.2 -10.31 0 -13.86 41.2zm16.73 -24.11c0.91,-2.81 1.52,-7.02 1.52,-7.02l0.25 0c0,0 0.42,4.15 1.4,7.08l2.81 8.67 -8.85 0 2.87 -8.73z"/>
   <path fill="none" fill-rule="nonzero" stroke="#ED3A95" stroke-width="1.02" stroke-miterlimit="10" d="M205.4 114.73l8.37 0 0 -19.78c0,-2.26 -0.31,-5 -0.49,-7.32l0.24 0c0.86,2.2 1.95,4.88 2.99,6.71l11.23 20.39 10.68 0 0 -41.2 -8.36 0 0 19.78c0,2.38 0.31,5.67 0.43,7.99l-0.25 0c-0.97,-2.44 -2.19,-5.55 -3.11,-7.32l-10.8 -20.45 -10.93 0 0 41.2z"/>
   <path fill="none" fill-rule="nonzero" stroke="#ED3A95" stroke-width="1.02" stroke-miterlimit="10" d="M262.9 115.46c10.62,0 18.74,-5.43 18.74,-21.91 0,-14.83 -7.88,-20.75 -18.74,-20.75 -11.05,0 -18.92,5.92 -18.92,20.75 0,15.99 7.87,21.91 18.92,21.91zm-0.12 -7.2c-4.4,0 -8.37,-3.3 -8.37,-14.71 0,-10.25 3.97,-13.55 8.37,-13.55 4.39,0 8.42,3.3 8.42,13.55 0,11.41 -4.03,14.71 -8.42,14.71z"/>
   <path fill="#FCEAF2" fill-rule="nonzero" d="M18.91 42.67c10.62,0 18.74,-5.43 18.74,-21.9 0,-14.83 -7.87,-20.76 -18.74,-20.76 -11.04,0 -18.91,5.93 -18.91,20.76 0,15.99 7.87,21.9 18.91,21.9zm-0.12 -7.19c-4.4,0 -8.36,-3.29 -8.36,-14.71 0,-10.26 3.96,-13.55 8.36,-13.55 4.39,0 8.42,3.29 8.42,13.55 0,11.42 -4.03,14.71 -8.42,14.71zm22.34 -6.23c-1.41,8.79 5.5,13.42 15.57,13.42 10.74,0 16.23,-5.31 16.23,-12.68 0,-8.54 -7.39,-11.05 -13.6,-13.13 -4.04,-1.4 -7.34,-2.44 -7.34,-5.86 0,-2.57 1.83,-3.78 5.07,-3.78 4.83,0 6.52,2.69 5.92,7.44l9.34 -0.84c1.35,-6.3 -2.15,-13.55 -14.46,-13.81 -10.07,-0.24 -15.99,4.46 -15.99,12.14 0,8.62 7.44,11.54 13.48,13.62 4.03,1.47 7.45,2.32 7.45,5.74 0,2.25 -1.47,3.97 -5.74,3.97 -6.47,0 -7.75,-3.79 -7.02,-7.08l-8.91 0.85zm48.84 12.7l27.89 0 0 -7.56 -17.7 0 0 -9.66 14.34 0 0 -7.56 -14.34 0 0 -8.86 17.09 0 0 -7.56 -27.28 0 0 41.2zm31.36 -34l5.51 0 0 26.8 -5.51 0 0 7.2 21.25 0 0 -7.2 -5.55 0 0 -26.8 5.55 0 0 -7.2 -21.25 0 0 7.2zm22.6 34l9.76 0 5.43 -9.47c1.28,-2.25 2.2,-4.39 2.2,-4.39l0.24 0c0,0 0.92,2.2 2.14,4.34l5.37 9.52 11.78 0 -12.75 -22.17 11.23 -19.03 -9.78 0 -4.08 7.13c-1.28,2.2 -2.25,4.53 -2.25,4.53l-0.26 0c0,0 -0.97,-2.33 -2.13,-4.46l-4.03 -7.2 -11.78 0 11.49 19.95 -12.58 21.25zm55.65 0.72c10.62,0 18.73,-5.43 18.73,-21.9 0,-14.83 -7.87,-20.76 -18.73,-20.76 -11.04,0 -18.91,5.93 -18.91,20.76 0,15.99 7.87,21.9 18.91,21.9zm-0.12 -7.19c-4.4,0 -8.36,-3.29 -8.36,-14.71 0,-10.26 3.96,-13.55 8.36,-13.55 4.39,0 8.42,3.29 8.42,13.55 0,11.42 -4.03,14.71 -8.42,14.71zm22.33 -6.23c-1.4,8.79 5.5,13.42 15.57,13.42 10.75,0 16.23,-5.31 16.23,-12.68 0,-8.54 -7.39,-11.05 -13.6,-13.13 -4.03,-1.4 -7.33,-2.44 -7.33,-5.86 0,-2.57 1.83,-3.78 5.07,-3.78 4.82,0 6.52,2.69 5.91,7.44l9.35 -0.84c1.35,-6.3 -2.15,-13.55 -14.47,-13.81 -10.07,-0.24 -15.98,4.46 -15.98,12.14 0,8.62 7.44,11.54 13.47,13.62 4.03,1.47 7.46,2.32 7.46,5.74 0,2.25 -1.47,3.97 -5.74,3.97 -6.47,0 -7.75,-3.79 -7.03,-7.08l-8.91 0.85z"/>
   <path fill="#FCEAF2" fill-rule="nonzero" d="M1.89 109.09l15.74 0c10.62,0 18.2,-6.72 18.2,-20.82 0,-14.41 -7.94,-20.38 -18.2,-20.38l-15.74 0 0 41.2zm10.19 -7.39l0 -26.42 4.58 0c4.52,0 8.84,2.37 8.84,12.99 0,10.68 -4.32,13.43 -8.84,13.43l-4.58 0zm46.38 8.11c10.62,0 18.74,-5.43 18.74,-21.9 0,-14.83 -7.87,-20.76 -18.74,-20.76 -11.04,0 -18.91,5.93 -18.91,20.76 0,15.99 7.87,21.9 18.91,21.9zm-0.12 -7.19c-4.39,0 -8.36,-3.29 -8.36,-14.71 0,-10.26 3.97,-13.55 8.36,-13.55 4.39,0 8.43,3.29 8.43,13.55 0,11.42 -4.04,14.71 -8.43,14.71zm35.83 6.47l10.19 0 0 -14.71 7.1 0c8.28,0 13.96,-5.19 13.96,-14.17 0,-8.24 -5.85,-12.32 -13.96,-12.32l-17.29 0 0 41.2zm14.97 -33.81c3.16,0 6.03,1.33 6.03,5.55 0,4.45 -2.87,6.16 -6.03,6.16l-4.78 0 0 -11.71 4.78 0zm20.91 33.81l27.36 0 0 -7.56 -17.17 0 0 -33.64 -10.19 0 0 41.2zm27.91 0l8.91 0 2.49 -7.82 13.81 0 2.56 7.82 10.31 0 -13.91 -41.2 -10.33 0 -13.84 41.2zm16.71 -24.1c0.92,-2.82 1.53,-7.03 1.53,-7.03l0.24 0c0,0 0.43,4.15 1.42,7.08l2.8 8.67 -8.86 0 2.87 -8.72zm25.14 24.1l8.38 0 0 -19.78c0,-2.27 -0.31,-5 -0.51,-7.32l0.25 0c0.86,2.2 1.95,4.88 2.99,6.71l11.23 20.39 10.69 0 0 -41.2 -8.37 0 0 19.78c0,2.37 0.31,5.67 0.43,7.99l-0.24 0c-0.97,-2.44 -2.2,-5.55 -3.12,-7.32l-10.79 -20.45 -10.94 0 0 41.2zm57.5 0.72c10.62,0 18.73,-5.43 18.73,-21.9 0,-14.83 -7.87,-20.76 -18.73,-20.76 -11.04,0 -18.92,5.93 -18.92,20.76 0,15.99 7.88,21.9 18.92,21.9zm-0.13 -7.19c-4.39,0 -8.35,-3.29 -8.35,-14.71 0,-10.26 3.96,-13.55 8.35,-13.55 4.4,0 8.43,3.29 8.43,13.55 0,11.42 -4.03,14.71 -8.43,14.71z"/>
  </g>
 </g>
</svg>
